<svg id="icons" enable-background="new 0 0 64 64" height="512" viewBox="0 0 64 64" width="512" xmlns="http://www.w3.org/2000/svg"><g><g><g><path d="m41 39.03v2.97c0 3.53-2.04 6.59-5 8.06-1.2.6-2.57.94-4 .94s-2.8-.34-4-.94c-2.95-1.46-4.98-4.5-5-8.01v-.05-2.97l3-2.03s3.01 1 6.5 1 5.5-1 5.5-1z" fill="#eac6bb"/></g><g><path d="m36 50.07v3.93c0 1.1-1.79 2-4 2s-4-.9-4-2v-3.93-.01c1.2.6 2.57.94 4 .94s2.8-.34 4-.94z" fill="#d3b1a9"/></g><g><path d="m28 54c0 1.1 1.79 2 4 2s4-.9 4-2h3c2.76 0 5 2.24 5 5v4h-24v-4c0-2.76 2.24-5 5-5z" fill="#5d9cec"/></g><g><path d="m41 36v3.03l-3-2.03s-2.01 1-5.5 1-6.5-1-6.5-1l-3 2.03v-3.03c0-4.28 3.36-7.78 7.59-7.99l.41.01h6v3.98c2.21 0 4 1.79 4 4z" fill="#965353"/></g><g><path d="m50 45c0 1.11 1.34 2 3 2s3-.89 3-2h3c1.66 0 3 1.34 3 3v4h-18v-4c0-1.66 1.34-3 3-3z" fill="#a0d468"/></g><g><path d="m54 32c2.39 0 4.54 1.05 6 2.71v.29c0 2.79-1.63 5.2-4 6.31-.91.44-1.92.681-3 .681s-2.09-.24-3-.681c-2.37-1.109-4-3.52-4-6.31v-3c1.66 0 3-1.34 3-3 0 1.66 1.34 3 3 3z" fill="#eac6bb"/></g><g><path d="m56 41.32v3.68c0 1.11-1.34 2-3 2s-3-.89-3-2v-3.68-.01c.91.44 1.92.681 3 .681s2.09-.24 3-.681z" fill="#d3b1a9"/></g><g><path d="m62 30v10c0-2.03-.75-3.88-2-5.29-1.46-1.66-3.61-2.71-6-2.71h-2c-1.66 0-3-1.34-3-3v-4.99-.01c1.37-1.1 3.11-2 5-2 4.42 0 8 3.58 8 8z" fill="#fc6e51"/></g><g><path d="m49 29c0 1.66-1.34 3-3 3v-4.99-.01c.01-1.66 1.34-2.99 3-2.99z" fill="#e9573f"/></g><g><path d="m40 18.01h-1l-7-12.01-7 12.01h-1-2.91c-.7-1.53-1.09-3.22-1.09-5.01 0-6.63 5.37-12 12-12 6.62 0 12 5.37 12 12 0 1.79-.39 3.49-1.1 5.02l-.021-.01z" fill="#5d9cec"/></g><g><path d="m40 18.01h2.88l.021.01c-1.901 4.12-6.071 6.98-10.901 6.98-4.84 0-9.01-2.87-10.91-6.99h2.91 1 7 7z" fill="#a0d468"/></g><g><path d="m32 6v12.01h-7z" fill="#656d78"/></g><g><path d="m32 6 7 12.01h-7z" fill="#545c66"/></g><g><path d="m18 30.5v1.37c-1.72-2.24-2.76-2.65-4-2.39l2-4.061c1.24 1.331 2 3.121 2 5.081z" fill="#f6bb42"/></g><g><path d="m18 31.87v3.13c0 2.79-1.63 5.2-4 6.31-.91.44-1.92.681-3 .681s-2.09-.24-3-.681c-2.37-1.11-4-3.52-4-6.31v-3.86c5.81.67 8.13-1.27 10-1.659 1.24-.261 2.28.149 4 2.389z" fill="#eac6bb"/></g><g><path d="m8 45c0 1.11 1.34 2 3 2s3-.89 3-2h3c1.66 0 3 1.34 3 3v4 .03h-18v-.03-4c0-1.66 1.34-3 3-3z" fill="#48cfad"/></g><g><path d="m4 31.14c-.32-.04-.65-.08-1-.14v-.5c0-4.14 3.36-7.5 7.5-7.5 2.18 0 4.14.93 5.5 2.42l-2 4.061c-1.87.389-4.19 2.329-10 1.659z" fill="#ffce54"/></g><g><path d="m14 41.32v3.68c0 1.11-1.34 2-3 2s-3-.89-3-2v-3.68-.01c.91.44 1.92.681 3 .681s2.09-.24 3-.681z" fill="#d3b1a9"/></g></g><g fill="#ffd2a6"><path d="m24 16.007c-.553 0-1 .447-1 1v1h2v-1c0-.553-.447-1-1-1z"/><path d="m40.005 16.007c-.553 0-1 .447-1 1v1h2v-1c0-.553-.447-1-1-1z"/></g></g></svg>