<svg width="799" height="610" viewBox="0 0 799 610" fill="none" xmlns="http://www.w3.org/2000/svg">
<path d="M515.854 151.28C520.35 151.28 523.994 147.57 523.994 142.994C523.994 138.418 520.35 134.708 515.854 134.708C511.359 134.708 507.715 138.418 507.715 142.994C507.715 147.57 511.359 151.28 515.854 151.28Z" fill="#A771A2"/>
<path d="M524.494 128.303C526.59 128.303 528.289 126.574 528.289 124.44C528.289 122.306 526.59 120.577 524.494 120.577C522.397 120.577 520.698 122.306 520.698 124.44C520.698 126.574 522.397 128.303 524.494 128.303Z" fill="#FFA255"/>
<path d="M275.655 78.0291C277.806 78.0291 279.55 76.2539 279.55 74.0641C279.55 71.8743 277.806 70.0991 275.655 70.0991C273.504 70.0991 271.76 71.8743 271.76 74.0641C271.76 76.2539 273.504 78.0291 275.655 78.0291Z" fill="#A771A2"/>
<path d="M530.536 542.087C534.176 542.087 537.128 539.083 537.128 535.377C537.128 531.671 534.176 528.667 530.536 528.667C526.895 528.667 523.944 531.671 523.944 535.377C523.944 539.083 526.895 542.087 530.536 542.087Z" fill="#A771A2"/>
<path d="M230.561 565.063C232.244 565.063 233.608 563.675 233.608 561.963C233.608 560.25 232.244 558.862 230.561 558.862C228.879 558.862 227.515 560.25 227.515 561.963C227.515 563.675 228.879 565.063 230.561 565.063Z" fill="#A771A2"/>
<path d="M268.614 336.008C270.351 336.008 271.76 334.575 271.76 332.806C271.76 331.037 270.351 329.604 268.614 329.604C266.876 329.604 265.468 331.037 265.468 332.806C265.468 334.575 266.876 336.008 268.614 336.008Z" fill="#EC615B"/>
<path d="M274.806 352.326C276.488 352.326 277.852 350.938 277.852 349.225C277.852 347.513 276.488 346.124 274.806 346.124C273.124 346.124 271.76 347.513 271.76 349.225C271.76 350.938 273.124 352.326 274.806 352.326Z" fill="#6CC2BD"/>
<path d="M271.161 438.742C274.305 438.742 276.854 436.148 276.854 432.948C276.854 429.747 274.305 427.153 271.161 427.153C268.017 427.153 265.468 429.747 265.468 432.948C265.468 436.148 268.017 438.742 271.161 438.742Z" fill="#6CC2BD"/>
<path d="M511.31 109.393C513.296 109.393 514.906 107.755 514.906 105.733C514.906 103.712 513.296 102.073 511.31 102.073C509.324 102.073 507.715 103.712 507.715 105.733C507.715 107.755 509.324 109.393 511.31 109.393Z" fill="#6CC2BD"/>
<path d="M374.531 115.798C376.269 115.798 377.677 114.365 377.677 112.596C377.677 110.827 376.269 109.393 374.531 109.393C372.794 109.393 371.385 110.827 371.385 112.596C371.385 114.365 372.794 115.798 374.531 115.798Z" fill="#6CC2BD"/>
<path d="M94.0324 366.305C95.3562 366.305 96.4294 365.213 96.4294 363.865C96.4294 362.517 95.3562 361.425 94.0324 361.425C92.7086 361.425 91.6354 362.517 91.6354 363.865C91.6354 365.213 92.7086 366.305 94.0324 366.305Z" fill="#6CC2BD"/>
<path d="M522.196 558.862C525.506 558.862 528.189 556.131 528.189 552.762C528.189 549.393 525.506 546.662 522.196 546.662C518.887 546.662 516.204 549.393 516.204 552.762C516.204 556.131 518.887 558.862 522.196 558.862Z" fill="#6CC2BD"/>
<path d="M586.366 36.6001C588.104 36.6001 589.512 35.1663 589.512 33.3976C589.512 31.6289 588.104 30.1951 586.366 30.1951C584.629 30.1951 583.22 31.6289 583.22 33.3976C583.22 35.1663 584.629 36.6001 586.366 36.6001Z" fill="#6CC2BD"/>
<path d="M280.699 177.358C280.199 174.206 279.75 167.903 284.694 168.411C286.491 168.614 287.49 170.241 289.488 169.529C293.233 168.208 292.384 163.277 293.932 160.43C296.479 155.855 301.423 162.514 305.218 160.328C306.466 159.617 306.766 158.295 306.716 156.923C306.616 151.788 311.061 152.144 314.706 153.161C315.655 153.415 316.054 151.941 315.106 151.687C311.41 150.67 305.268 150.314 305.118 155.753C305.068 157.075 305.767 158.397 303.87 159.21C303.27 159.464 302.272 159.159 301.722 159.007C300.424 158.6 299.275 157.685 297.927 157.329C296.179 156.821 294.481 157.177 293.283 158.6C291.785 160.43 291.835 162.921 291.136 165.056C290.387 167.343 288.938 168.665 286.491 167.547C285.493 167.089 284.594 166.683 283.445 166.835C278.302 167.547 278.551 173.901 279.201 177.764C279.4 178.73 280.848 178.323 280.699 177.358Z" fill="#6CC2BD"/>
<path d="M286.591 180.306C286.991 177.154 289.488 175.782 292.384 175.782C293.932 175.782 295.48 176.036 296.978 175.477C300.374 174.155 299.725 170.393 300.524 167.445C302.022 161.853 308.963 165.31 312.809 164.395C315.405 163.734 317.602 161.091 316.504 158.295C316.154 157.38 314.706 157.787 315.056 158.702C316.754 162.921 310.961 163.175 308.514 162.87C306.716 162.667 304.968 162.362 303.171 162.819C300.324 163.582 299.226 165.717 298.826 168.462C298.476 171.003 298.526 173.799 295.28 174.206C293.533 174.409 291.785 173.901 290.037 174.308C287.241 174.968 285.443 177.358 285.093 180.204C284.943 181.272 286.442 181.272 286.591 180.306Z" fill="#6CC2BD"/>
<path d="M389.762 55.4592C388.014 57.6959 386.167 60.4409 387.016 63.44C387.715 65.88 389.612 66.795 391.91 66.6425C393.258 66.5409 394.656 66.185 395.755 67.405C396.604 68.32 396.054 70.2517 395.805 71.2684C395.405 72.8442 394.656 74.3692 394.806 76.0467C395.056 78.3342 396.853 80.1134 399.15 79.605C400.099 79.4017 399.7 77.9275 398.751 78.1309C394.406 79.1475 397.403 71.7767 397.602 69.9975C397.752 68.5234 397.503 66.8967 396.404 65.8292C395.305 64.7617 393.957 64.8634 392.559 65.0159C390.361 65.27 388.314 64.5584 388.214 61.8642C388.164 59.8309 389.562 58.0009 390.761 56.4759C391.46 55.815 390.361 54.6967 389.762 55.4592Z" fill="#DB7D2F"/>
<path d="M401.547 54.6967C399.2 55.7134 397.702 58.2042 398.302 60.7967C398.601 61.9659 399.3 63.0842 400.299 63.7959C401.498 64.7109 402.896 64.5076 404.094 65.2701C406.341 66.6426 404.544 69.3367 404.644 71.4717C404.694 72.5392 404.943 73.5051 405.842 74.1659C407.19 75.2334 409.188 74.8776 409.737 73.1492C410.037 72.2342 408.589 71.8276 408.289 72.7426C406.391 72.4884 405.742 71.6242 406.292 70.1501C406.391 69.6417 406.491 69.1334 406.591 68.6251C406.691 68.1167 406.741 67.6084 406.741 67.1001C406.741 66.0326 406.441 64.9142 405.642 64.1517C404.444 63.0334 402.596 63.4909 401.298 62.5759C398.651 60.6951 399.6 57.1367 402.297 55.9676C403.195 55.6117 402.396 54.3409 401.547 54.6967Z" fill="#DB7D2F"/>
<path d="M75.0061 355.173C73.8576 353.343 73.8576 351.106 75.0061 349.225C76.1547 347.395 77.7527 347.344 79.6004 346.633C82.1472 345.565 82.1971 342.871 82.0473 340.431C81.9974 339.567 81.9475 338.652 82.1971 337.788C82.8463 335.754 84.5442 336.313 86.0923 336.568C86.9911 336.72 87.8401 336.568 88.5891 336.059C89.5379 335.398 90.1372 334.229 90.4368 333.111C90.6865 332.196 90.7365 331.23 90.9362 330.315C91.0361 329.654 91.2358 329.044 91.5355 328.485C92.3345 327.214 93.2833 327.113 94.4318 328.231C94.6815 329.197 96.1297 328.79 95.88 327.824C94.9811 324.52 90.9861 325.994 89.9874 328.333C89.5379 329.4 89.488 330.569 89.2383 331.688C89.0885 332.348 88.9886 333.06 88.6391 333.67C87.89 335.043 86.4918 334.788 85.1934 334.636C83.6453 334.483 82.4468 334.331 81.4481 335.805C80.2995 337.483 80.5991 339.465 80.5991 341.397C80.6491 343.735 80.1497 344.65 77.9025 345.413C77.0036 345.718 76.2546 345.87 75.4556 346.48C72.5592 348.564 71.8101 352.885 73.7078 355.884C74.2071 356.748 75.5055 355.986 75.0061 355.173Z" fill="#EC615B"/>
<path d="M81.2483 358.68C79.151 358.375 79.95 356.037 80.8988 355.122C81.5979 354.461 82.5467 354.054 83.4456 353.597C84.5442 353.038 85.6428 352.377 86.4418 351.411C88.5892 348.666 85.493 345.006 88.4893 342.82C91.4855 340.685 99.5255 339.719 97.1784 334.026C96.8288 333.111 95.5305 333.924 95.88 334.788C97.5779 338.906 89.3382 340.126 87.2408 341.854C86.4918 342.464 85.8426 343.278 85.543 344.243C84.9437 346.378 86.6915 348.564 85.1435 350.598C83.3457 352.834 79.5005 352.834 78.6017 355.986C78.0523 357.765 79.0012 359.9 80.8988 360.205C81.7977 360.307 82.1972 358.833 81.2483 358.68Z" fill="#A771A2"/>
<path d="M628.663 240.543C628.014 239.374 628.114 238.103 628.813 236.985C629.912 235.358 631.21 235.714 632.908 235.867C634.056 235.968 635.105 236.223 636.204 235.562C638.151 234.342 637.852 231.8 638.201 229.868C639 225.344 642.845 229.462 645.442 228.038C646.391 227.53 646.741 226.564 646.94 225.548C647.29 223.565 647.39 217.668 651.135 220.058C651.934 220.566 652.733 219.244 651.884 218.736C648.538 216.652 645.842 220.108 645.542 223.311C645.342 225.141 645.542 226.92 643.145 226.666C642.296 226.564 641.447 226.107 640.598 226.005C639.25 225.853 638.051 226.259 637.302 227.479C636.453 228.903 636.753 230.682 636.404 232.207C635.654 235.663 632.758 233.732 630.411 234.138C627.265 234.698 625.817 238.561 627.315 241.255C627.814 242.17 629.113 241.408 628.663 240.543Z" fill="#A771A2"/>
<path d="M636.104 243.746C635.255 241.408 637.902 238.815 640.199 240.035C640.498 240.188 640.898 240.188 641.098 239.933C642.246 238.663 642.546 237.188 643.045 235.562C643.944 232.613 646.091 232.207 648.688 231.394C651.235 230.58 654.081 228.445 653.033 225.395C652.683 224.48 651.235 224.887 651.584 225.802C653.033 229.818 645.941 230.123 643.844 231.597C641.297 233.427 642.046 236.731 640.099 238.866C640.398 238.815 640.698 238.764 640.998 238.764C637.652 236.985 633.407 240.493 634.706 244.203C635.005 245.068 636.453 244.712 636.104 243.746Z" fill="#A771A2"/>
<path d="M434.406 257.064C434.506 257.064 435.605 259.809 436.054 260.165C436.753 260.724 437.602 260.775 438.451 260.623C439.949 260.368 440.898 259.25 442.197 258.538C444.993 256.912 444.993 259.708 446.092 261.283C447.34 263.164 448.688 262.249 450.137 261.334C451.085 260.724 451.984 260.318 452.833 261.182C453.283 261.639 453.582 262.402 453.932 262.961C454.481 263.774 455.08 264.435 455.979 264.842C456.828 265.248 457.627 263.927 456.728 263.52C454.681 262.605 454.431 259.148 451.984 258.793C450.836 258.64 450.336 259.301 449.438 259.809C448.339 260.47 447.69 260.928 446.991 259.657C446.691 259.148 446.641 258.437 446.291 257.928C444.693 255.234 442.197 256.708 440.199 258.03C439.85 258.284 439.5 258.538 439.1 258.742C438.252 258.488 437.353 258.233 436.504 257.979C436.154 257.623 436.154 256.759 435.855 256.302C435.355 255.59 434.856 255.387 434.057 255.539C433.058 255.743 433.458 257.217 434.406 257.064Z" fill="#EC615B"/>
<path d="M446.142 252.184C447.64 249.795 451.085 254.777 452.484 255.387C453.333 255.742 454.132 255.742 455.031 255.488C455.43 255.387 455.78 255.183 456.129 255.031C457.477 254.472 458.626 254.827 459.725 255.793C461.323 257.166 461.772 258.996 464.069 259.504C465.418 259.809 466.666 259.402 467.265 258.081C467.665 257.217 466.366 256.403 465.967 257.318C464.569 260.368 460.723 254.37 459.725 253.709C457.877 252.489 456.728 253.506 454.881 253.912C451.934 254.522 450.986 251.167 448.539 250.354C447.09 249.846 445.692 250.1 444.893 251.472C444.294 252.286 445.592 253.048 446.142 252.184Z" fill="#EC615B"/>
<path d="M632.758 341.041C659.275 341.041 685.792 341.041 712.358 341.041C713.307 341.041 713.307 339.516 712.358 339.516C685.842 339.516 659.325 339.516 632.758 339.516C631.809 339.516 631.809 341.041 632.758 341.041Z" fill="#E8E8E8"/>
<path d="M654.481 340.685C654.481 348.564 654.481 356.393 654.481 364.272C654.481 365.238 655.979 365.238 655.979 364.272C655.979 356.393 655.979 348.564 655.979 340.685C655.979 339.719 654.481 339.719 654.481 340.685Z" fill="#E8E8E8"/>
<path d="M691.535 339.923C691.535 328.943 691.535 317.963 691.535 306.983C691.535 306.017 690.036 306.017 690.036 306.983C690.036 317.963 690.036 328.943 690.036 339.923C690.036 340.939 691.535 340.939 691.535 339.923Z" fill="#E8E8E8"/>
<path d="M673.907 307.593C683.944 307.593 693.982 307.593 704.019 307.593C704.968 307.593 704.968 306.068 704.019 306.068C693.982 306.068 683.944 306.068 673.907 306.068C672.958 306.068 672.958 307.593 673.907 307.593Z" fill="#E8E8E8"/>
<path d="M654.181 124.542C654.181 134.048 654.181 143.553 654.181 153.008C654.181 153.974 655.679 153.974 655.679 153.008C655.679 143.503 655.679 133.997 655.679 124.542C655.679 123.576 654.181 123.576 654.181 124.542Z" fill="#E8E8E8"/>
<path d="M630.86 155.194C648.888 155.194 666.865 155.194 684.893 155.194C685.842 155.194 685.842 153.669 684.893 153.669C666.865 153.669 648.888 153.669 630.86 153.669C629.862 153.669 629.862 155.194 630.86 155.194Z" fill="#E8E8E8"/>
<path d="M684.393 154.991C684.393 161.294 684.393 167.598 684.393 173.901C684.393 174.867 685.892 174.867 685.892 173.901C685.892 167.598 685.892 161.294 685.892 154.991C685.892 154.025 684.393 154.025 684.393 154.991Z" fill="#E8E8E8"/>
<path d="M182.871 94.9059C200.499 94.9059 218.177 94.9059 235.805 94.9059C236.754 94.9059 236.754 93.3809 235.805 93.3809C218.177 93.3809 200.499 93.3809 182.871 93.3809C181.922 93.3809 181.872 94.9059 182.871 94.9059Z" fill="#E8E8E8"/>
<path d="M233.608 94.7535C233.608 99.6335 233.608 104.513 233.608 109.393C233.608 110.359 235.106 110.359 235.106 109.393C235.106 104.513 235.106 99.6335 235.106 94.7535C235.106 93.7368 233.608 93.7368 233.608 94.7535Z" fill="#E8E8E8"/>
<path d="M217.578 93.5333C217.578 85.705 217.578 77.9275 217.578 70.0991C217.578 69.1333 216.08 69.1333 216.08 70.0991C216.08 77.9275 216.08 85.705 216.08 93.5333C216.08 94.55 217.578 94.55 217.578 93.5333Z" fill="#E8E8E8"/>
<path d="M78.1522 251.574C90.3369 251.574 102.522 251.574 114.706 251.574C115.655 251.574 115.655 250.049 114.706 250.049C102.522 250.049 90.3369 250.049 78.1522 250.049C77.2033 250.049 77.2033 251.574 78.1522 251.574Z" fill="#E8E8E8"/>
<path d="M100.474 236.273C100.474 240.848 100.474 245.423 100.474 249.998C100.474 250.964 101.972 250.964 101.972 249.998C101.972 245.423 101.972 240.848 101.972 236.273C101.972 235.308 100.474 235.308 100.474 236.273Z" fill="#E8E8E8"/>
<path d="M91.6852 237.036C98.1771 237.036 104.669 237.036 111.161 237.036C112.11 237.036 112.11 235.511 111.161 235.511C104.669 235.511 98.1771 235.511 91.6852 235.511C90.6865 235.511 90.6865 237.036 91.6852 237.036Z" fill="#E8E8E8"/>
<path d="M311.61 557.54C327.89 557.54 344.169 557.54 360.449 557.54C361.398 557.54 361.398 556.015 360.449 556.015C344.169 556.015 327.89 556.015 311.61 556.015C310.611 556.015 310.611 557.54 311.61 557.54Z" fill="#E8E8E8"/>
<path d="M341.672 556.015C341.672 552.457 341.672 548.898 341.672 545.289C341.672 544.323 340.174 544.323 340.174 545.289C340.174 548.848 340.174 552.406 340.174 556.015C340.174 557.032 341.672 557.032 341.672 556.015Z" fill="#E8E8E8"/>
<path d="M337.128 545.34C343.87 545.34 350.661 545.34 357.403 545.34C358.351 545.34 358.351 543.815 357.403 543.815C350.661 543.815 343.87 543.815 337.128 543.815C336.179 543.815 336.179 545.34 337.128 545.34Z" fill="#E8E8E8"/>
<path d="M79.3007 530.802C95.5803 530.802 111.86 530.802 128.14 530.802C129.088 530.802 129.088 529.277 128.14 529.277C111.86 529.277 95.5803 529.277 79.3007 529.277C78.3519 529.277 78.3519 530.802 79.3007 530.802Z" fill="#E8E8E8"/>
<path d="M101.872 510.875C101.872 516.721 101.872 522.618 101.872 528.464C101.872 529.429 103.371 529.429 103.371 528.464C103.371 522.618 103.371 516.721 103.371 510.875C103.371 509.909 101.872 509.909 101.872 510.875Z" fill="#E8E8E8"/>
<path d="M101.872 508.588C95.3806 508.588 88.8387 508.588 82.3469 508.588C81.3981 508.588 81.3981 510.113 82.3469 510.113C88.8387 510.113 95.3806 510.113 101.872 510.113C102.821 510.113 102.821 508.588 101.872 508.588Z" fill="#E8E8E8"/>
<path d="M622.171 486.069C620.523 484.391 620.923 481.138 623.47 480.579C624.818 480.274 626.116 481.138 627.415 481.29C628.414 481.443 629.462 481.341 630.111 480.426C631.11 479.104 630.311 477.579 630.261 476.105C630.161 471.479 635.555 471.784 638.251 473.411C638.85 473.767 639.5 473.157 639.35 472.547C638.052 466.193 645.193 461.821 650.086 466.04C650.836 466.65 651.884 465.583 651.135 464.973C645.093 459.788 636.254 465.074 637.902 473.004C638.251 472.699 638.651 472.445 639 472.14C636.703 470.717 633.757 470.005 631.31 471.581C630.411 472.14 629.612 473.004 629.213 474.021C628.913 474.733 628.763 475.394 628.813 476.156C628.863 477.529 629.312 477.427 628.314 478.748C627.215 480.223 627.115 479.562 625.567 479.206C625.018 479.054 624.518 478.952 623.919 479.003C622.671 479.053 621.522 479.664 620.723 480.579C618.975 482.561 619.425 485.357 621.173 487.136C621.822 487.848 622.87 486.78 622.171 486.069Z" fill="#E8E8E8"/>
<path d="M631.909 487.593C631.36 482.968 638.8 482.917 640.898 479.714C641.447 478.901 641.647 477.986 641.996 477.122C642.646 475.546 643.794 474.529 645.492 474.072C648.239 473.36 651.085 474.631 653.582 475.699C654.481 476.054 654.88 474.58 653.981 474.224C649.387 472.293 643.195 470.819 640.648 476.512C639.749 478.545 639.45 479.664 637.352 480.731C636.104 481.341 634.805 481.697 633.607 482.409C631.709 483.527 630.211 485.255 630.461 487.593C630.561 488.559 632.059 488.559 631.909 487.593Z" fill="#E8E8E8"/>
<path d="M417.128 339.77C418.127 342.312 419.125 344.904 420.124 347.446C420.224 347.141 420.374 346.887 420.474 346.582C419.924 346.938 419.375 347.293 418.826 347.7C417.977 345.667 418.326 345.158 419.924 346.073C420.873 346.683 421.323 348.005 421.522 349.073C421.972 351.513 421.473 354.054 420.674 356.393C420.474 357.003 421.073 357.409 421.572 357.308C424.569 356.698 425.767 360.358 425.168 362.645C424.718 364.323 423.82 365.797 422.921 367.271C422.421 368.084 423.72 368.847 424.219 368.033C425.817 365.492 427.665 362.34 426.566 359.188C425.717 356.85 423.62 355.376 421.173 355.833C421.473 356.138 421.772 356.443 422.072 356.748C423.071 353.8 423.72 350.089 422.471 347.09C421.622 345.108 419.675 343.583 417.478 344.243C415.78 344.752 414.931 346.48 415.73 348.158C417.078 350.953 419.425 349.073 421.173 347.903C421.423 347.751 421.622 347.344 421.522 347.039C420.524 344.498 419.525 341.905 418.526 339.363C418.227 338.499 416.778 338.855 417.128 339.77Z" fill="#E8E8E8"/>
<path d="M121.798 99.2775C120.849 96.8375 124.045 96.1767 125.543 97.0408C126.691 97.7017 127.44 98.8708 128.14 99.9383C128.789 100.904 129.488 101.972 129.837 103.09C130.237 104.056 130.187 104.971 129.688 105.886C127.94 106.699 127.041 106.496 126.991 105.327C126.542 103.649 128.289 102.531 129.788 102.582C131.336 102.632 132.784 103.547 133.832 104.666C135.63 106.597 136.279 109.139 136.03 111.732C136.479 111.579 136.979 111.477 137.428 111.325C136.429 109.851 137.378 108.275 138.726 107.512C139.875 106.902 141.173 107.055 142.272 107.665C144.07 108.631 145.318 110.41 146.467 112.037C147.016 112.85 148.314 112.087 147.765 111.274C145.867 108.58 143.021 104.818 139.276 105.682C136.529 106.292 134.332 109.546 136.13 112.087C136.579 112.748 137.428 112.443 137.528 111.681C137.977 106.852 134.482 100.243 128.889 101.057C126.891 101.362 125.443 102.785 125.443 104.869C125.443 106.496 126.442 108.173 128.14 108.275C130.137 108.427 131.485 106.445 131.585 104.615C131.735 102.073 129.788 99.3283 128.289 97.4475C126.891 95.77 124.844 94.3467 122.646 95.2108C120.849 95.8717 119.65 97.7017 120.399 99.5825C120.699 100.599 122.147 100.192 121.798 99.2775Z" fill="#E8E8E8"/>
<path d="M384.868 173.85C382.771 172.579 384.269 168.818 386.616 170.393C388.863 171.918 385.867 174.511 384.419 172.732C383.82 171.969 382.771 173.037 383.37 173.799C384.519 175.223 386.716 175.121 388.014 173.952C389.513 172.579 389.113 170.343 387.565 169.224C386.017 168.106 383.77 168.309 382.821 170.139C381.872 171.868 382.521 174.206 384.169 175.172C384.918 175.629 385.667 174.358 384.868 173.85Z" fill="#E8E8E8"/>
<path d="M543.969 62.6776C542.87 61.1018 544.768 58.7126 546.516 59.4243C546.366 59.3226 546.216 59.1701 546.067 59.0684C547.015 60.7459 545.617 63.0334 543.769 62.9318C544.019 63.1351 544.269 63.2876 544.469 63.4909C544.169 62.6268 543.819 61.7118 543.52 60.8476C543.17 59.9326 541.722 60.3393 542.071 61.2543C542.371 62.1184 542.721 63.0334 543.02 63.8976C543.12 64.2534 543.37 64.4568 543.719 64.4568C545.317 64.5584 546.716 63.5418 547.415 62.1184C547.964 61.0001 548.264 58.6618 546.915 57.9501C543.969 56.4759 540.923 60.9493 542.671 63.4401C543.22 64.2534 544.518 63.4909 543.969 62.6776Z" fill="#E8E8E8"/>
<path d="M584.618 138.267C584.369 137.098 585.218 135.827 586.366 135.573C587.415 135.369 588.364 136.233 588.613 137.199C589.262 139.487 586.316 140.554 584.918 138.978C584.269 138.267 583.22 139.334 583.869 140.046C586.466 142.994 591.46 140.097 589.862 136.335C589.163 134.658 587.415 133.59 585.667 134.149C583.819 134.759 582.721 136.742 583.12 138.673C583.42 139.639 584.868 139.233 584.618 138.267Z" fill="#E8E8E8"/>
<path d="M422.521 559.014C420.624 558.099 420.773 555.456 422.521 554.439C424.219 553.473 425.817 554.338 427.365 555.049C428.664 555.659 430.162 556.218 431.31 555.049C432.359 554.033 432.159 552.457 432.209 551.135C432.409 546.001 437.303 547.018 440.649 548.288C441.547 548.644 441.947 547.17 441.048 546.814C438.102 545.645 434.007 544.527 431.66 547.475C430.961 548.339 430.761 549.356 430.711 550.423C430.661 551.135 430.961 552.711 430.561 553.372C429.463 555.049 427.964 553.524 426.816 553.016C424.619 552.05 421.473 552.304 420.124 554.643C418.976 556.625 419.675 559.319 421.722 560.285C422.621 560.743 423.37 559.421 422.521 559.014Z" fill="#E8E8E8"/>
<path d="M446.691 439.2C445.193 457.856 445.992 476.562 449.088 495.015C449.238 495.981 450.686 495.574 450.536 494.608C447.49 476.308 446.691 457.703 448.189 439.2C448.289 438.234 446.791 438.234 446.691 439.2Z" fill="#E8E8E8"/>
<path d="M447.69 440.369C455.48 443.114 463.52 444.944 471.71 445.859C479.4 446.673 488.239 447.537 495.63 444.588C496.529 444.233 496.129 442.758 495.23 443.114C488.039 446.012 479.3 445.148 471.71 444.334C463.67 443.47 455.73 441.589 448.089 438.895C447.14 438.539 446.791 440.013 447.69 440.369Z" fill="#E8E8E8"/>
<path d="M459.575 442.453C456.978 438.336 454.831 433.964 453.333 429.287C452.633 427.051 452.034 424.814 451.585 422.527C451.335 421.154 451.085 419.782 450.936 418.409C450.936 418.257 450.386 414.647 451.435 415.156C451.934 415.41 452.783 414.952 452.534 414.292C449.787 407.226 448.289 399.804 448.139 392.179C447.889 392.433 447.64 392.687 447.39 392.942C447.79 393.094 448.139 393.247 448.539 393.399C449.038 394.009 449.987 393.348 449.787 392.637C448.788 389.383 448.139 386.028 447.939 382.572C447.889 381.758 448.039 372.608 448.589 372.761C449.188 372.913 449.587 372.354 449.487 371.846C448.539 366.102 448.089 360.256 448.339 354.461C448.439 351.563 448.688 348.717 449.138 345.87C449.537 343.277 449.737 340.126 451.735 338.245C451.335 338.194 450.936 338.143 450.536 338.092C454.731 346.124 457.078 354.918 459.225 363.662C461.323 372.252 463.17 380.945 464.768 389.688C468.014 407.734 470.062 425.983 470.961 444.334C471.01 445.3 472.509 445.3 472.459 444.334C471.56 425.882 469.512 407.48 466.216 389.282C464.569 380.233 462.671 371.236 460.474 362.289C458.326 353.698 455.979 345.158 451.834 337.279C451.585 336.822 450.986 336.822 450.636 337.127C448.938 338.702 448.439 340.787 448.039 342.972C447.49 346.073 447.09 349.276 446.891 352.427C446.491 359.036 446.891 365.644 447.989 372.202C448.289 371.897 448.589 371.592 448.888 371.287C445.992 370.473 446.341 376.827 446.291 378.251C446.092 383.232 446.841 388.214 448.289 392.992C448.688 392.738 449.138 392.484 449.537 392.23C448.888 391.467 448.339 391.213 447.34 391.315C446.941 391.366 446.591 391.62 446.591 392.077C446.741 399.804 448.239 407.378 451.035 414.597C451.385 414.292 451.785 414.037 452.134 413.732C447.14 411.292 450.037 422.781 450.436 424.509C451.934 431.117 454.631 437.421 458.226 443.114C458.826 444.029 460.124 443.267 459.575 442.453Z" fill="#E8E8E8"/>
<path d="M467.515 391.671C467.065 388.418 466.966 385.113 467.365 381.86C467.465 381.047 469.363 371.49 470.311 371.897C470.811 372.151 471.41 371.846 471.46 371.236C471.76 364.729 473.757 358.934 476.104 352.936C478.451 346.988 480.748 341.244 484.643 336.11C484.294 336.11 483.944 336.11 483.595 336.11C486.441 339.414 486.092 344.447 486.241 348.564C486.441 353.19 486.591 357.816 486.641 362.442C486.741 371.541 486.591 380.64 486.191 389.739C485.343 408.344 483.295 426.898 480.199 445.249C480.049 446.215 481.497 446.622 481.647 445.656C484.893 426.543 486.941 407.175 487.789 387.757C488.189 377.997 488.289 368.237 488.089 358.477C487.989 353.597 487.889 348.717 487.54 343.837C487.34 340.634 486.841 337.483 484.643 334.992C484.394 334.687 483.844 334.687 483.595 334.992C479.75 340.075 477.353 345.667 475.055 351.614C472.509 358.019 470.361 364.221 470.012 371.236C470.411 371.033 470.761 370.778 471.16 370.575C468.114 369.203 467.115 375.811 466.716 377.59C465.617 382.368 465.517 387.198 466.217 392.027C466.167 393.043 467.615 392.637 467.515 391.671Z" fill="#E8E8E8"/>
<path d="M449.787 496.286C465.418 501.42 482.346 501.166 497.827 495.574C498.726 495.269 498.326 493.795 497.427 494.1C482.197 499.59 465.567 499.844 450.187 494.812C449.238 494.507 448.838 495.981 449.787 496.286Z" fill="#E8E8E8"/>
<path d="M495.43 444.08C496.029 452.315 496.678 460.55 497.228 468.785C497.777 477.173 497.977 485.662 496.628 493.998C496.479 494.964 497.927 495.371 498.077 494.405C499.425 486.221 499.325 477.986 498.776 469.751C498.226 461.211 497.577 452.62 496.928 444.08C496.878 443.114 495.38 443.114 495.43 444.08Z" fill="#E8E8E8"/>
<path d="M228.914 509.35C239.101 503.809 249.338 498.268 259.525 492.727C264.319 493.541 270.911 494.608 278.801 495.727C294.581 497.963 320 501.572 352.159 502.538C384.319 503.504 408.439 501.42 417.627 500.505C439.75 498.37 453.133 495.472 464.069 492.473C474.007 489.728 482.197 486.729 488.039 484.442C492.833 486.068 498.177 488.254 503.869 491.253C507.115 492.982 510.112 494.761 512.758 496.54C503.37 499.285 490.736 502.792 475.705 506.351C444.044 513.874 419.775 517.432 414.681 518.195C385.568 522.414 344.069 528.362 291.885 522.211C275.655 520.228 254.032 516.619 228.914 509.35Z" fill="white"/>
<path d="M228.364 509.401C228.614 511.536 228.914 513.62 229.163 515.755C232.909 516.823 238.402 518.348 245.193 519.873C258.177 522.821 271.36 524.854 288.589 526.227C352.209 531.31 403.046 526.786 403.046 526.786C428.464 524.498 453.133 522.16 484.993 512.705C496.978 509.147 506.766 505.538 513.757 502.742C513.208 500.353 512.658 497.963 512.109 495.574C510.162 496.388 507.265 497.557 503.72 498.878C479.65 507.825 459.825 510.773 442.147 512.959C403.295 517.839 383.87 520.228 355.355 520.686C322.896 521.245 279.35 519.263 228.364 509.401Z" fill="#161616"/>
<path d="M228.015 510.367C228.015 511.993 228.015 513.62 228.015 515.247C228.015 516.213 229.513 516.213 229.513 515.247C229.513 513.62 229.513 511.993 229.513 510.367C229.513 509.35 228.015 509.35 228.015 510.367Z" fill="#161616"/>
<path d="M228.564 516.67C265.867 526.938 304.819 528.26 343.22 528.819C380.124 529.327 417.278 527.701 453.632 520.838C474.107 516.975 494.281 511.332 513.757 503.657C514.656 503.301 514.256 501.827 513.358 502.182C479.001 515.755 442.496 522.668 405.792 525.566C368.788 528.463 331.435 527.802 294.432 525.515C272.309 524.092 250.387 521.143 228.963 515.247C228.015 514.942 227.615 516.416 228.564 516.67Z" fill="#161616"/>
<path d="M513.757 502.589C514.057 500.454 514.157 498.268 513.957 496.133C513.857 495.167 512.359 495.167 512.459 496.133C512.609 498.167 512.609 500.2 512.309 502.183C512.159 503.098 513.607 503.555 513.757 502.589Z" fill="#161616"/>
<path d="M229.213 510.214C239.7 505.131 249.987 499.692 260.075 493.795C260.924 493.287 260.174 492.016 259.326 492.473C249.238 498.319 238.951 503.809 228.464 508.892C227.565 509.299 228.314 510.621 229.213 510.214Z" fill="#161616"/>
<path d="M259.675 493.083C319.25 504.623 381.173 506.758 441.248 498.014C457.228 495.676 473.108 492.067 487.889 485.357C488.788 484.95 487.989 483.628 487.14 484.035C473.857 490.033 459.675 493.541 445.343 495.828C430.761 498.167 416.029 499.59 401.298 500.556C371.385 502.488 341.323 501.979 311.51 499.082C294.232 497.404 277.103 494.863 260.075 491.609C259.126 491.457 258.726 492.931 259.675 493.083Z" fill="#161616"/>
<path d="M487.59 485.103C496.479 488.051 504.818 492.168 512.608 497.404C513.407 497.963 514.156 496.642 513.357 496.083C505.467 490.796 496.978 486.628 487.989 483.628C487.04 483.323 486.641 484.798 487.59 485.103Z" fill="#161616"/>
<path d="M229.313 509.401C246.941 515.45 265.318 518.297 283.795 519.822C302.521 521.347 321.398 521.804 340.174 521.804C377.478 521.804 414.881 519.212 451.635 512.4C472.509 508.537 493.183 503.301 513.308 496.438C514.206 496.133 513.807 494.659 512.908 494.964C477.502 506.961 440.698 513.976 403.545 517.433C366.591 520.889 329.238 521.093 292.184 518.856C271.011 517.534 249.787 514.84 229.613 507.927C228.814 507.622 228.414 509.096 229.313 509.401Z" fill="#161616"/>
<path d="M258.077 219.092C319.101 204.706 381.922 201.554 444.344 200.944C462.022 200.741 479.7 200.792 497.377 200.792C498.326 200.792 498.326 199.267 497.377 199.267C434.756 199.165 371.835 199.114 309.662 207.908C292.184 210.399 274.856 213.551 257.678 217.618C256.729 217.872 257.128 219.346 258.077 219.092Z" fill="#161616"/>
<path d="M500.474 199.419C501.123 223.057 501.522 250.456 501.373 280.905C501.273 298.595 501.123 290.157 499.575 363.763C498.676 406.158 498.426 422.12 495.48 446.622C493.582 462.583 491.285 475.698 489.587 484.594C502.471 488.254 514.756 491.711 525.542 494.761C542.221 499.488 546.666 500.759 553.308 501.725C563.595 503.148 576.129 503.352 590.611 500.352C595.954 455.822 598.9 417.85 600.598 388.773C606.691 286.598 600.998 239.527 598.801 223.006C595.804 200.741 592.109 182.441 589.263 169.783C578.576 171.867 569.887 174.104 563.794 175.782C542.871 181.627 526.291 188.49 512.409 194.285C507.265 196.471 503.12 198.25 500.474 199.419Z" fill="white"/>
<path d="M156.205 170.698C155.805 175.07 155.356 180.458 154.956 185.135C146.666 281.362 142.522 329.502 141.173 360.459C139.775 393.704 139.675 441.894 146.617 501.827C147.166 503.047 148.165 504.724 149.962 506.097C152.309 507.876 154.457 507.825 158.701 509.045C162.047 510.011 163.795 510.977 165.393 511.587C169.987 513.417 180.274 515.501 193.358 514.992C212.135 514.23 226.566 508.384 237.153 503.962C247.091 499.844 255.031 495.422 260.524 492.067C257.428 463.752 255.131 433.862 253.832 402.498C251.186 335.805 253.832 274.551 259.276 219.956C256.978 219.041 253.633 217.77 249.688 216.143C242.896 213.347 226.616 206.587 197.952 192.353C186.616 186.762 172.434 179.492 156.205 170.698Z" fill="white"/>
<path d="M588.963 169.58C589.562 172.935 590.361 177.561 591.26 183.102C592.508 190.981 595.305 209.637 597.352 234.138C599.45 259.657 599.949 281.617 599.999 299.103C600.149 334.585 598.851 360.612 595.455 421.307C594.406 440.217 592.858 467.921 590.91 501.725C592.958 501.573 594.955 501.471 597.003 501.318C598.002 492.88 599.35 480.324 600.399 464.973C601.198 453.891 601.547 445.808 601.897 437.116C603.645 397.263 603.944 397.72 604.543 381.453C605.742 349.378 605.492 324.723 605.292 302.56C605.143 287.259 604.693 272.772 603.794 243.797C603.145 224.073 602.496 206.587 598.101 183.864C596.953 178.069 595.854 173.24 595.055 169.936C593.008 169.834 591.01 169.733 588.963 169.58Z" fill="#161616"/>
<path d="M148.564 171.613C148.214 173.392 147.665 176.137 147.116 179.492C145.518 189.202 145.118 196.522 144.969 198.911C143.87 216.194 141.673 224.632 138.477 263.012C137.877 270.027 137.428 276.177 136.529 288.53C134.681 313.743 133.783 326.35 133.133 340.583C132.434 356.494 132.334 367.728 132.185 390.197C132.035 409.615 131.935 423.645 132.434 441.996C132.834 456.636 133.633 476.512 135.58 500.2C139.625 501.42 143.62 502.64 147.665 503.86C147.615 501.572 147.465 497.455 147.166 492.321C145.967 469.497 144.02 460.245 143.57 441.233C143.42 435.387 143.52 431.524 143.57 425.983C144.12 386.232 143.47 368.084 143.82 342.261C144.419 300.12 147.216 267.18 149.613 239.12C151.86 212.585 154.407 189.862 156.604 172.071C153.857 171.918 151.211 171.766 148.564 171.613Z" fill="#161616"/>
<path d="M499.275 200.283C501.123 237.595 500.873 275.008 500.374 312.32C499.825 348.818 499.575 385.418 496.828 421.866C495.28 442.606 492.833 463.295 489.038 483.781C488.838 484.747 490.286 485.153 490.486 484.188C497.128 448.35 499.575 411.903 500.673 375.506C501.822 338.347 502.321 301.086 502.271 263.876C502.222 242.678 501.872 221.481 500.823 200.283C500.723 199.318 499.225 199.318 499.275 200.283Z" fill="#161616"/>
<path d="M501.123 200.283C528.838 186.304 558.251 176.239 588.613 170.292C589.562 170.088 589.163 168.614 588.214 168.818C557.752 174.816 528.189 184.983 500.374 198.962C499.525 199.419 500.274 200.741 501.123 200.283Z" fill="#161616"/>
<path d="M588.114 169.834C596.354 212.077 598.851 255.234 598.801 298.239C598.701 341.244 596.204 384.147 594.156 427.102C592.958 451.857 591.759 476.562 590.561 501.318C590.511 502.284 592.009 502.284 592.059 501.318C594.206 457.5 596.454 413.682 598.401 369.812C600.299 326.807 601.497 283.701 598.651 240.747C597.053 216.804 594.206 192.963 589.612 169.478C589.362 168.462 587.914 168.868 588.114 169.834Z" fill="#161616"/>
<path d="M489.288 484.086C491.535 486.729 495.53 487.238 498.676 488.203C502.971 489.525 507.315 490.847 511.61 492.168C520.299 494.812 528.938 497.607 537.727 499.844C554.906 504.114 572.534 504.978 589.962 501.928C590.911 501.776 590.511 500.302 589.562 500.454C572.384 503.453 555.005 502.589 538.127 498.37C530.087 496.387 522.197 493.846 514.306 491.406C510.311 490.186 506.316 488.966 502.321 487.746C500.324 487.136 498.326 486.526 496.329 485.916C494.232 485.255 491.884 484.798 490.386 483.018C489.687 482.307 488.639 483.374 489.288 484.086Z" fill="#161616"/>
<path d="M589.113 169.885C590.96 170.342 592.808 170.8 594.706 171.257C595.655 171.512 596.054 170.037 595.105 169.783C593.257 169.326 591.41 168.868 589.512 168.411C588.563 168.207 588.164 169.682 589.113 169.885Z" fill="#161616"/>
<path d="M594.606 170.749C599.6 191.286 600.948 212.737 602.396 233.833C603.894 255.387 604.693 276.991 605.043 298.646C605.642 341.6 604.194 384.554 601.797 427.457C600.449 451.756 598.751 476.054 597.003 500.352C596.953 501.318 598.451 501.318 598.501 500.352C601.647 457.144 604.493 413.936 605.842 370.626C607.19 327.417 607.09 284.107 604.394 240.899C602.945 217.414 601.647 193.319 596.104 170.393C595.804 169.377 594.356 169.783 594.606 170.749Z" fill="#161616"/>
<path d="M591.36 502.182C593.557 501.979 595.705 501.776 597.902 501.572C598.851 501.471 598.851 499.946 597.902 500.048C595.705 500.251 593.557 500.454 591.36 500.658C590.411 500.759 590.411 502.284 591.36 502.182Z" fill="#161616"/>
<path d="M258.027 219.549C254.681 254.777 252.684 290.106 252.035 325.486C251.385 361.018 252.085 396.602 254.182 432.083C255.331 452.01 256.978 471.886 258.976 491.711C259.076 492.677 260.574 492.677 260.474 491.711C256.879 456.534 254.631 421.205 253.733 385.825C252.834 350.292 253.283 314.709 255.131 279.227C256.179 259.301 257.628 239.425 259.475 219.549C259.625 218.583 258.127 218.583 258.027 219.549Z" fill="#161616"/>
<path d="M157.153 171.918C189.563 190.269 223.221 206.333 257.777 220.007C258.676 220.363 259.076 218.888 258.177 218.533C223.72 204.909 190.212 188.897 157.902 170.597C157.053 170.088 156.304 171.41 157.153 171.918Z" fill="#161616"/>
<path d="M155.605 171.563C150.062 214.568 146.217 257.827 144.12 301.188C142.022 344.548 141.723 387.96 143.121 431.321C143.92 455.67 145.268 480.019 147.166 504.317C147.266 505.283 148.764 505.283 148.664 504.317C145.268 461.058 143.67 417.647 143.77 374.286C143.87 330.874 145.768 287.513 149.363 244.254C151.411 219.956 154.007 195.759 157.103 171.563C157.203 170.597 155.705 170.597 155.605 171.563Z" fill="#161616"/>
<path d="M147.116 505.283C174.931 520.686 208.239 517.382 236.504 505.182C244.993 501.522 253.183 497.099 261.073 492.27C261.872 491.762 261.123 490.44 260.324 490.948C234.007 507.164 203.146 518.5 172.035 512.603C163.595 511.028 155.406 508.13 147.865 503.962C147.066 503.504 146.267 504.826 147.116 505.283Z" fill="#161616"/>
<path d="M136.08 501.064C139.575 502.742 143.171 504.165 146.816 505.436C147.715 505.741 148.115 504.267 147.216 503.962C143.67 502.742 140.225 501.369 136.829 499.742C135.93 499.336 135.181 500.657 136.08 501.064Z" fill="#161616"/>
<path d="M147.565 171.918C142.172 214.517 137.678 257.217 134.731 300.069C131.835 342.718 130.437 385.469 131.336 428.22C131.835 452.417 133.034 476.613 135.081 500.708C135.181 501.674 136.679 501.674 136.579 500.708C132.984 457.957 131.935 415.054 132.934 372.151C133.882 329.4 136.779 286.7 140.924 244.102C143.271 220.007 146.017 195.912 149.063 171.868C149.213 170.953 147.715 170.953 147.565 171.918Z" fill="#161616"/>
<path d="M148.414 172.986C151.311 172.376 154.207 172.173 157.203 172.325C158.152 172.376 158.152 170.851 157.203 170.8C154.107 170.648 151.061 170.902 148.015 171.512C147.066 171.715 147.466 173.189 148.414 172.986Z" fill="#161616"/>
<path d="M518.401 203.74C520.499 262.707 520.399 321.724 518.002 380.691C517.353 397.212 516.504 413.682 515.455 430.202C515.405 431.168 516.903 431.168 516.953 430.202C520.599 371.337 521.997 312.32 521.148 253.303C520.898 236.782 520.499 220.261 519.899 203.74C519.85 202.774 518.351 202.774 518.401 203.74Z" fill="#161616"/>
<path d="M542.621 182.593C544.618 223.616 545.617 264.74 545.567 305.813C545.567 346.887 544.569 388.011 542.571 429.033C541.472 452.264 540.024 475.444 538.276 498.624C538.226 499.59 539.725 499.59 539.775 498.624C542.871 457.652 544.968 416.63 546.117 375.557C547.215 334.483 547.365 293.359 546.516 252.286C546.017 229.055 545.218 205.824 544.119 182.593C544.069 181.627 542.571 181.627 542.621 182.593Z" fill="#161616"/>
<path d="M571.685 173.545C574.481 216.194 576.179 258.945 576.628 301.747C577.078 344.701 576.379 387.604 574.481 430.507C573.432 454.552 571.984 478.596 570.136 502.589C570.087 503.555 571.585 503.555 571.635 502.589C574.831 459.94 576.928 417.189 577.777 374.438C578.626 331.535 578.326 288.581 576.828 245.627C575.979 221.582 574.781 197.538 573.183 173.494C573.133 172.528 571.635 172.528 571.685 173.545Z" fill="#161616"/>
<path d="M513.258 449.265C512.109 462.583 510.012 475.8 506.966 488.813C506.766 489.779 508.164 490.186 508.414 489.22C511.51 476.054 513.607 462.736 514.756 449.265C514.856 448.299 513.358 448.299 513.258 449.265Z" fill="#161616"/>
<path d="M173.533 181.831C167.54 224.48 164.994 267.587 164.594 310.642C164.245 353.952 165.992 397.212 168.589 440.42C170.037 464.871 171.735 489.271 173.433 513.722C173.483 514.688 174.981 514.688 174.931 513.722C171.935 470.666 168.939 427.61 167.291 384.503C165.643 341.498 165.393 298.392 167.84 255.387C169.238 230.936 171.535 206.485 174.931 182.237C175.131 181.322 173.683 180.865 173.533 181.831Z" fill="#161616"/>
<path d="M202.247 196.064C198.452 237.29 195.905 278.668 195.056 320.097C194.257 361.476 195.206 402.854 198.552 444.131C200.399 467.057 202.996 489.881 206.392 512.603C206.542 513.569 207.99 513.162 207.84 512.197C201.748 471.225 198.252 429.847 196.954 388.417C195.655 347.547 196.404 306.576 198.602 265.757C199.85 242.526 201.598 219.295 203.745 196.115C203.845 195.098 202.347 195.098 202.247 196.064Z" fill="#161616"/>
<path d="M231.011 208.213C226.117 246.694 223.271 285.429 222.522 324.215C221.773 363.001 223.071 401.837 226.417 440.471C228.314 462.024 230.811 483.476 233.957 504.877C234.107 505.842 235.555 505.436 235.405 504.47C229.763 466.142 226.167 427.559 224.619 388.875C223.071 350.292 223.62 311.608 226.167 273.026C227.615 251.371 229.713 229.716 232.459 208.162C232.659 207.247 231.161 207.247 231.011 208.213Z" fill="#161616"/>
<path opacity="0.12" d="M560.498 177.002C566.042 200.029 570.536 227.022 572.034 257.267C575.779 334.229 558.002 397.11 542.521 437.472C531.585 455.314 520.698 473.157 509.762 490.999C520.399 495.676 536.179 501.115 555.854 502.742C569.437 503.86 581.223 502.843 590.411 501.318C590.511 499.082 592.159 465.074 592.259 462.837C597.702 348.92 598.051 341.142 598.251 333.314C599.15 301.442 599 255.692 593.657 198.606C591.809 188.897 589.962 179.187 588.114 169.529C578.975 171.969 569.737 174.46 560.498 177.002Z" fill="#3F3F3F"/>
<path opacity="0.13" d="M211.985 201.859C210.686 207.4 208.739 215.686 206.442 225.802C196.254 270.942 188.764 304.136 184.769 334.687C177.678 388.519 170.836 440.674 200 483.476C208.489 495.93 217.777 504.317 223.97 509.299C217.977 511.688 210.537 513.874 201.847 514.942C177.678 517.839 158.302 509.858 148.814 505.08C145.218 471.377 142.721 435.286 141.922 397.11C140.125 312.625 146.866 236.68 157.153 171.359C175.381 181.526 193.658 191.692 211.985 201.859Z" fill="#3F3F3F"/>
<path d="M159.6 147.162C158.951 147.671 159.45 149.653 160.349 153.059C160.699 154.381 161.048 155.397 161.248 156.058C160.849 158.803 160.499 161.548 160.1 164.293C159.301 164.395 157.253 164.852 155.356 166.53C153.608 168.106 152.909 169.936 152.659 170.749C154.257 170.902 156.204 171.257 158.302 171.918C161.348 172.884 163.745 174.206 165.493 175.324C165.493 175.934 165.593 177.103 166.392 177.967C167.091 178.679 167.94 178.781 168.439 178.882C170.237 179.187 172.384 179.594 175.131 180.204C176.329 180.916 178.327 182.085 180.774 183.457C189.063 188.032 192.06 188.795 200.349 193.268C205.693 196.166 205.243 196.267 208.988 198.097C214.731 200.944 219.675 202.622 223.021 203.587C224.419 202.012 226.666 198.962 227.915 194.539C228.913 191.032 228.864 187.982 228.664 185.999C229.513 186.457 230.861 186.965 232.409 186.762C236.404 186.304 238.951 181.678 239.75 178.374C240.449 175.477 239.8 173.647 239.251 170.241C238.002 162.616 236.903 155.804 240 151.483C242.596 147.874 247.94 146.197 252.234 141.367C252.634 140.91 253.383 140.046 253.133 139.639C252.684 138.877 249.188 140.198 247.49 140.961C246.392 141.469 238.152 145.332 235.655 154.076C235.256 155.448 235.206 159.413 235.156 167.292C235.106 173.037 235.206 176.29 232.958 178.171C231.81 179.137 230.112 179.696 228.564 179.34C226.267 178.832 225.168 176.544 224.169 175.019C221.573 171.003 217.877 169.326 213.333 167.038C209.787 165.259 206.741 164.598 200.599 163.226C194.806 161.955 193.058 162.107 190.561 160.227C187.765 158.092 186.217 155.092 185.418 153.415C184.619 151.839 183.37 149.348 182.821 145.79C182.522 143.706 182.571 142.232 182.072 142.13C181.173 141.927 180.724 146.146 177.678 147.62C175.83 148.535 174.631 147.671 171.385 147.772C169.288 147.823 166.891 148.281 164.194 149.501C163.296 148.84 160.499 146.502 159.6 147.162Z" fill="black"/>
<path d="M161.098 163.887C160.05 155.499 167.54 147.874 175.83 148.738C183.67 149.552 188.864 159.261 188.614 166.53C188.564 167.496 190.062 167.496 190.112 166.53C190.362 158.498 184.469 147.925 175.83 147.213C166.741 146.451 158.452 154.635 159.6 163.887C159.75 164.802 161.248 164.852 161.098 163.887Z" fill="black"/>
<path d="M160.949 169.173C163.995 175.223 170.537 179.493 177.378 178.578C183.62 177.713 188.914 172.579 189.862 166.225C190.012 165.259 188.564 164.853 188.414 165.818C187.565 171.613 182.871 176.29 177.178 177.053C170.936 177.917 165.043 173.952 162.247 168.411C161.797 167.547 160.499 168.309 160.949 169.173Z" fill="black"/>
<path d="M166.342 176.544C166.192 174.612 171.585 173.799 172.934 173.494C175.38 172.935 177.877 172.63 180.374 172.63C185.018 172.63 189.463 173.85 193.408 176.341C194.207 176.849 195.006 175.527 194.157 175.019C189.063 171.817 183.121 170.698 177.228 171.257C174.132 171.562 171.086 172.223 168.14 173.24C166.542 173.799 164.644 174.511 164.794 176.544C164.894 177.51 166.442 177.51 166.342 176.544Z" fill="black"/>
<path d="M187.815 158.956C190.961 162.819 196.055 163.734 200.599 164.751C206.641 166.174 212.884 167.445 218.177 170.851C229.113 177.866 231.161 193.167 222.521 202.977C221.872 203.689 222.921 204.807 223.57 204.045C231.261 195.352 231.46 182.034 223.52 173.392C219.325 168.817 213.333 166.428 207.49 164.852C201.548 163.276 193.008 163.022 188.814 157.837C188.264 157.126 187.216 158.193 187.815 158.956Z" fill="black"/>
<path d="M222.771 185.542C220.274 182.187 215.88 181.017 212.035 182.644C207.291 184.627 207.041 190.574 207.59 195.098C207.69 196.064 209.188 196.064 209.088 195.098C208.639 191.54 208.589 186.05 212.184 184.271C215.281 182.695 219.325 183.508 221.423 186.355C222.022 187.117 223.32 186.355 222.771 185.542Z" fill="black"/>
<path d="M208.889 194.387C206.142 192.252 203.296 190.422 199.75 191.387C199.35 191.489 199.151 191.947 199.251 192.302C200.149 195.861 205.643 197.335 208.539 198.606C212.983 200.588 217.528 202.266 222.122 203.74C223.021 204.045 223.42 202.571 222.521 202.266C218.826 201.097 215.231 199.826 211.635 198.301C209.688 197.487 207.79 196.623 205.892 195.708C204.194 194.895 201.148 193.929 200.649 191.896C200.499 192.201 200.299 192.506 200.149 192.811C203.246 191.947 205.792 193.827 208.09 195.657C208.889 196.318 209.638 194.997 208.889 194.387Z" fill="black"/>
<path d="M164.993 176.391C166.941 179.645 170.886 180.204 174.332 180.712C179.425 181.475 184.519 181.475 189.613 180.916C190.561 180.814 190.561 179.289 189.613 179.391C185.518 179.848 181.423 179.95 177.328 179.543C173.882 179.187 168.339 178.984 166.242 175.629C165.792 174.765 164.494 175.527 164.993 176.391Z" fill="black"/>
<path d="M153.358 171.206C154.007 167.648 157.053 165.818 160.449 165.666C160.199 165.462 159.95 165.31 159.75 165.106C160 166.326 160.349 167.496 160.849 168.614C161.198 169.529 162.646 169.122 162.297 168.207C161.847 167.038 161.498 165.92 161.198 164.7C161.148 164.395 160.799 164.141 160.499 164.141C156.504 164.344 152.709 166.581 151.96 170.8C151.76 171.766 153.208 172.172 153.358 171.206Z" fill="black"/>
<path d="M162.047 155.448C161.298 153.262 160.749 150.975 160.549 148.637C160.549 148.433 160.499 148.23 160.499 148.027C160.449 147.569 160.499 147.62 160.699 148.179C161.148 148.484 161.598 148.84 162.047 149.196C162.796 149.857 163.495 150.568 164.095 151.331C164.744 152.093 165.792 150.975 165.143 150.263C164.294 149.247 160.749 145.078 159.251 146.705C158.502 147.518 159.051 149.399 159.201 150.314C159.45 152.195 159.95 154.076 160.549 155.855C160.949 156.77 162.397 156.414 162.047 155.448Z" fill="black"/>
<path d="M178.926 148.332C179.376 147.518 179.825 146.705 180.324 145.892C180.524 145.536 180.724 145.231 180.874 144.875C181.173 144.367 181.173 143.909 181.773 144.062C182.472 144.214 182.222 145.892 182.222 146.502C182.222 147.467 182.272 148.433 182.272 149.399C182.272 150.365 183.77 150.365 183.77 149.399C183.77 147.823 183.82 146.247 183.72 144.672C183.67 143.655 183.321 142.537 182.222 142.181C181.223 141.876 180.524 142.537 180.025 143.299C179.176 144.672 178.427 146.146 177.628 147.518C177.128 148.433 178.427 149.196 178.926 148.332Z" fill="black"/>
<path d="M226.766 181.576C227.066 185.439 231.31 186.71 234.257 184.829C238.601 182.084 239.55 175.883 239.001 171.206C238.252 164.801 236.754 158.853 238.901 152.499C240.948 146.45 246.042 141.519 252.484 141.113C253.433 141.062 253.433 139.537 252.484 139.588C243.695 140.147 237.702 147.772 236.454 156.21C235.705 161.243 236.804 165.919 237.453 170.85C237.852 174.103 237.653 177.204 236.204 180.203C235.555 181.474 234.656 182.745 233.458 183.558C231.61 184.728 228.414 184.372 228.214 181.627C228.214 180.61 226.716 180.559 226.766 181.576Z" fill="black"/>
<path d="M227.565 184.322C229.113 188.541 234.506 186.66 236.854 184.22C240.699 180.255 239.85 173.647 239.55 168.614C239.5 167.648 238.002 167.648 238.052 168.614C238.252 171.817 238.551 175.273 238.002 178.476C237.752 180.001 237.203 181.424 236.204 182.644C235.106 184.016 230.312 187.473 229.013 183.915C228.664 183 227.216 183.407 227.565 184.322Z" fill="black"/>
<path d="M252.534 139.538C246.841 141.775 241.098 144.926 238.801 151.026C236.154 158.041 238.052 165.666 237.902 172.935C237.902 173.901 239.4 173.901 239.4 172.935C239.55 166.581 238.052 160.075 239.55 153.771C241.198 146.858 246.841 143.401 252.933 141.012C253.832 140.656 253.433 139.182 252.534 139.538Z" fill="black"/>
<path d="M251.385 140.401C246.142 142.841 241.348 147.111 238.901 152.551C237.603 155.397 237.802 158.549 237.802 161.65C237.802 165.615 237.952 169.631 238.252 173.596C238.302 174.561 239.8 174.561 239.75 173.596C239.55 170.393 239.4 167.241 239.35 164.039C239.3 160.684 238.851 156.719 240.099 153.567C242.247 148.23 247.091 144.112 252.134 141.723C253.033 141.316 252.284 139.995 251.385 140.401Z" fill="black"/>
<path d="M164.045 158.803C165.443 161.294 168.989 160.43 169.338 157.685C169.388 157.177 168.639 157.227 168.589 157.685C168.339 159.769 165.743 160.176 164.694 158.447C164.444 157.99 163.795 158.397 164.045 158.803Z" fill="white"/>
<path d="M174.631 156.821C176.18 159.515 180.125 158.447 180.175 155.347C180.175 154.838 179.425 154.838 179.425 155.347C179.376 157.736 176.479 158.498 175.281 156.465C175.031 156.007 174.382 156.363 174.631 156.821Z" fill="white"/>
<path d="M171.635 160.176C171.985 161.65 171.685 163.124 170.786 164.344C170.487 164.751 171.136 165.107 171.435 164.751C172.434 163.378 172.734 161.65 172.384 159.972C172.234 159.515 171.485 159.718 171.635 160.176Z" fill="white"/>
<path d="M171.935 160.125C171.785 162.057 172.834 163.887 174.582 164.7C175.031 164.903 175.381 164.242 174.981 164.039C173.483 163.327 172.534 161.802 172.684 160.125C172.684 159.617 171.935 159.617 171.935 160.125Z" fill="white"/>
<path d="M159.75 164.649C164.145 164.293 166.941 167.953 169.887 170.647C170.237 170.952 170.786 170.444 170.437 170.088C167.341 167.242 164.344 163.531 159.75 163.836C159.301 163.887 159.301 164.649 159.75 164.649Z" fill="white"/>
<path d="M167.94 173.596C173.583 169.936 180.274 168.716 186.816 170.19C187.266 170.292 187.465 169.58 187.016 169.478C180.274 168.004 173.383 169.224 167.59 172.986C167.141 173.189 167.54 173.85 167.94 173.596Z" fill="white"/>
<path d="M182.122 180.56C186.766 180.865 191.161 179.391 194.706 176.29C195.056 175.985 194.556 175.426 194.157 175.731C190.761 178.679 186.566 180.102 182.122 179.797C181.673 179.797 181.673 180.56 182.122 180.56Z" fill="white"/>
<path d="M180.774 144.468C179.675 146.349 179.425 148.535 180.075 150.619C180.224 151.076 180.924 150.873 180.774 150.416C180.174 148.535 180.374 146.552 181.373 144.875C181.673 144.417 181.023 144.011 180.774 144.468Z" fill="white"/>
<path d="M160.998 149.196C162.197 149.958 162.946 151.127 163.246 152.5C163.346 152.957 164.045 152.754 163.945 152.297C163.595 150.721 162.696 149.399 161.348 148.535C160.949 148.281 160.599 148.942 160.998 149.196Z" fill="white"/>
<path d="M187.415 157.329C188.364 158.498 189.463 159.515 190.711 160.277C191.111 160.532 191.51 159.871 191.111 159.617C189.912 158.854 188.814 157.888 187.965 156.77C187.615 156.414 187.116 156.973 187.415 157.329Z" fill="white"/>
<path d="M218.227 182.288C217.178 179.594 212.134 181.424 210.487 182.491C207.54 184.474 206.242 188.185 207.34 191.591C207.49 192.048 208.189 191.845 208.04 191.387C207.191 188.693 207.89 185.796 209.987 183.813C210.886 182.949 212.085 182.339 213.283 182.034C214.132 181.78 217.028 181.221 217.478 182.441C217.678 182.949 218.377 182.746 218.227 182.288Z" fill="white"/>
<path d="M207.94 191.642C204.045 189.964 199.9 189.812 195.855 191.082C195.405 191.235 195.605 191.947 196.055 191.794C200 190.523 203.945 190.727 207.74 192.353C208.189 192.557 208.389 191.794 207.94 191.642Z" fill="white"/>
<path d="M345.118 403.057C343.071 408.039 343.071 411.75 342.771 421.307C342.422 433.1 341.423 444.842 341.323 456.585C341.223 466.497 341.073 481.493 340.674 501.013C356.654 501.928 374.332 502.132 393.508 501.166C411.785 500.251 428.664 498.37 443.895 496.032C436.704 471.276 431.959 453.23 428.564 439.251C426.766 431.778 424.119 420.595 416.828 407.531C412.833 400.363 408.689 394.975 405.642 391.366C404.843 390.654 387.215 375.557 366.841 382.673C365.842 383.08 351.011 388.57 345.118 403.057Z" fill="#FF8B2B"/>
<path d="M374.531 432.693C377.877 438.743 381.223 444.792 384.519 450.841C384.968 451.705 386.267 450.943 385.817 450.078C382.471 444.029 379.126 437.98 375.83 431.931C375.38 431.067 374.082 431.829 374.531 432.693Z" fill="#C64F4F"/>
<path d="M374.132 432.388C381.822 442.148 386.267 453.281 388.664 465.481C390.911 477.02 392.359 488.712 393.208 500.454C393.258 501.42 394.756 501.42 394.706 500.454C393.807 488.407 392.309 476.359 390.012 464.515C387.615 452.264 382.921 441.081 375.23 431.321C374.631 430.507 373.533 431.626 374.132 432.388Z" fill="#C64F4F"/>
<path opacity="0.19" d="M386.167 381.504C387.915 385.062 390.411 390.298 393.208 396.602C401.348 415.003 409.787 434.422 414.282 458.313C416.129 467.972 417.877 481.951 417.128 499.387C421.323 499.183 425.767 498.828 430.411 498.319C435.056 497.811 439.5 497.201 443.695 496.489C442.396 492.016 440.299 484.899 437.952 476.105C431.41 451.502 430.511 443.826 424.918 427.61C420.773 415.563 416.928 407.378 411.385 399.55C406.391 392.484 401.697 388.062 395.755 384.961C392.059 383.029 388.614 382.063 386.167 381.504Z" fill="#3F3F3F"/>
<path opacity="0.11" d="M374.232 432.948C376.179 440.369 377.877 449.214 378.676 459.177C380.074 476.41 378.277 491.101 376.079 502.081C381.822 501.725 387.515 501.369 393.258 501.013C392.659 489.474 391.36 479.765 390.112 472.394C386.966 453.637 383.67 446.673 381.023 442.199C378.526 438.082 376.029 434.981 374.232 432.948Z" fill="#3F3F3F"/>
<path d="M310.262 316.437C308.614 317.556 307.615 319.691 305.667 323.91C304.069 327.367 303.32 330.061 302.122 334.077C298.826 345.463 299.176 343.532 298.027 347.852C296.529 353.597 293.832 363.662 292.334 376.929C290.886 389.79 291.186 399.702 291.236 402.092C291.785 417.189 294.382 428.423 296.129 435.642C299.226 448.604 303.37 459.381 311.61 480.883C313.408 485.509 314.906 489.322 315.955 491.965C315.206 492.067 314.007 492.219 312.559 492.422C305.018 493.337 303.97 493.134 300.923 493.795C297.028 494.659 293.533 495.523 292.184 498.522C291.585 499.895 291.335 501.827 292.084 502.487C293.033 503.301 294.881 501.471 298.077 500.403C300.774 499.539 303.171 499.59 304.819 499.844C303.52 502.437 302.771 504.775 302.322 506.452C301.223 510.316 300.374 513.467 301.772 515.704C302.471 516.822 303.82 517.839 304.918 517.534C305.518 517.382 306.067 516.822 307.565 512.807C309.013 508.791 309.113 507.52 310.312 505.944C311.36 504.622 312.559 503.911 313.358 503.504C312.958 504.775 312.509 506.656 312.309 508.943C312.209 510.316 312.059 511.587 312.309 513.213C312.509 514.687 312.958 517.839 315.255 519.567C315.655 519.872 317.303 521.143 318.302 520.482C319.151 519.974 318.901 518.551 319.25 513.976C319.55 510.112 319.85 509.045 320.099 508.435C320.749 506.656 321.747 505.385 322.496 504.622C322.247 508.282 322.297 511.332 322.397 513.569C322.596 517.178 322.946 518.805 324.094 519.822C324.744 520.381 325.842 520.94 326.741 520.533C327.64 520.127 327.94 518.856 328.189 517.28C329.288 511.332 328.639 509.604 329.887 506.605C330.387 505.436 330.936 504.012 332.284 502.996C335.131 500.861 339.176 502.132 339.725 502.284C342.122 503.047 343.021 504.368 344.219 503.809C345.218 503.352 345.767 501.877 345.817 500.657C345.867 497.658 342.621 495.371 339.825 493.49C338.426 492.524 336.329 491.253 333.533 490.237C331.086 485.306 327.99 478.138 325.443 469.039C323.745 462.939 322.946 458.262 322.197 453.84C319.55 438.336 320.499 432.388 317.553 416.986C316.853 413.275 316.154 410.327 315.755 408.649C315.955 406.107 316.304 402.142 316.804 397.313C318.451 381.555 319.55 371.693 322.896 360.103C325.543 351.004 328.239 343.532 328.239 343.532C331.635 334.229 332.734 332.958 332.334 329.959C330.936 320.504 316.404 312.269 310.262 316.437Z" fill="white"/>
<path d="M306.417 321.267C297.528 342.159 291.935 364.475 290.736 387.248C289.488 410.479 293.433 433.202 300.824 455.162C305.018 467.717 310.112 479.917 315.305 492.117C315.705 493.032 316.953 492.219 316.604 491.355C307.615 470.208 298.826 448.757 294.631 426.085C290.486 403.718 291.335 380.589 296.129 358.375C298.826 345.921 302.721 333.772 307.715 322.08C308.064 321.165 306.816 320.352 306.417 321.267Z" fill="#161616"/>
<path d="M325.043 350.292C318.751 369.66 315.455 389.942 315.106 410.327C315.106 411.292 316.604 411.292 316.604 410.327C316.953 390.044 320.249 369.965 326.491 350.699C326.791 349.784 325.343 349.377 325.043 350.292Z" fill="#161616"/>
<path d="M309.862 401.075C314.307 407.378 316.104 414.902 317.153 422.425C318.252 430.101 318.751 437.878 319.85 445.554C322.047 461.16 325.642 476.715 332.883 490.694C333.333 491.558 334.631 490.796 334.182 489.932C326.641 475.393 323.096 459.177 320.998 443.012C319.151 428.83 319.7 412.411 311.161 400.312C310.611 399.55 309.313 400.312 309.862 401.075Z" fill="#161616"/>
<path d="M315.106 491.406C310.461 491.66 305.817 492.117 301.273 492.982C298.027 493.642 294.581 494.71 292.334 497.353C291.036 498.929 289.388 502.691 292.234 503.758C293.483 504.216 294.581 503.352 295.63 502.742C298.227 501.217 300.923 499.641 304.02 500.505C304.968 500.759 305.368 499.285 304.419 499.031C301.872 498.319 299.575 498.929 297.278 500.098C296.579 500.454 295.93 500.81 295.28 501.217C294.881 501.42 294.531 501.674 294.132 501.928C293.682 501.115 293.183 500.302 292.734 499.488C292.834 498.217 295.33 496.743 296.229 496.235C298.676 494.913 301.523 494.456 304.219 494.049C307.865 493.49 311.51 493.134 315.156 492.931C316.104 492.88 316.104 491.355 315.106 491.406Z" fill="#161616"/>
<path d="M311.011 495.93C307.066 496.591 303.82 499.336 302.322 503.047C300.724 506.91 299.375 512.654 301.223 516.619C302.621 519.618 306.067 520.686 307.365 517.026C308.164 514.738 308.015 512.247 308.814 509.96C309.812 507.113 311.51 504.673 314.007 502.996C314.806 502.437 314.057 501.115 313.258 501.674C310.911 503.25 309.163 505.385 308.015 507.977C307.415 509.299 306.966 510.672 306.666 512.095C306.417 513.264 306.267 519.161 303.52 517.432C301.972 516.467 301.822 513.366 301.872 511.79C301.972 509.452 302.571 506.757 303.32 504.521C304.569 500.759 307.515 498.065 311.36 497.404C312.359 497.252 311.96 495.777 311.011 495.93Z" fill="#161616"/>
<path d="M315.705 499.692C312.609 501.725 311.51 506.148 311.211 509.706C310.911 513.518 311.96 517.636 314.756 520.33C316.404 521.906 318.951 522.719 319.4 519.771C320.149 514.84 318.202 507.876 323.495 504.928C324.344 504.47 323.595 503.148 322.746 503.606C320.848 504.673 319.65 506.402 318.901 508.486C317.852 511.536 318.451 514.637 318.002 517.788C317.802 519.212 317.403 520.737 315.855 519.263C315.305 518.754 314.806 518.093 314.407 517.433C313.458 515.908 312.908 514.179 312.759 512.4C312.409 508.842 313.308 503.148 316.504 501.013C317.253 500.454 316.504 499.133 315.705 499.692Z" fill="#161616"/>
<path d="M322.796 503.758C321.847 507.418 320.948 511.231 321.548 515.043C321.797 516.873 322.846 521.347 325.143 521.804C327.74 522.312 328.788 517.636 329.038 515.907C329.587 512.146 328.888 507.622 331.785 504.724C332.484 504.012 331.435 502.945 330.736 503.657C327.24 507.164 328.439 512.247 327.39 516.721C327.041 518.347 326.042 520.787 324.394 518.907C323.495 517.941 323.245 516.06 323.046 514.789C322.546 511.231 323.395 507.672 324.294 504.216C324.494 503.25 323.046 502.843 322.796 503.758Z" fill="#161616"/>
<path d="M333.583 491.558C336.529 492.778 339.575 494.1 341.872 496.438C342.921 497.506 344.219 499.133 344.519 500.658C345.268 504.877 342.172 502.183 341.023 501.674C337.877 500.251 331.635 501.268 329.837 504.521C329.388 505.385 330.686 506.148 331.136 505.283C332.084 503.504 334.681 503.047 336.479 502.793C337.578 502.64 338.826 502.538 339.875 502.843C341.073 503.199 341.822 504.267 342.971 504.623C344.619 505.131 345.867 503.962 346.117 502.335C346.566 499.692 344.319 496.743 342.571 495.015C340.124 492.626 336.978 491.304 333.882 490.033C333.083 489.728 332.734 491.203 333.583 491.558Z" fill="#161616"/>
<path opacity="0.13" d="M323.495 333.873C317.752 334.229 314.307 349.174 312.409 357.46C310.262 366.762 308.314 379.572 308.714 398.228C309.063 414.902 311.161 427.61 311.86 432.032C315.006 451.044 319.95 467.006 324.794 479.511C326.392 484.086 327.94 488.661 329.538 493.185C328.639 496.947 327.74 500.81 326.891 504.826C325.792 510.112 324.794 515.297 323.995 520.279C324.943 520.381 326.242 520.33 327.141 519.415C328.289 518.246 328.139 516.365 328.189 514.738C328.239 513.213 328.389 505.842 331.635 503.097C333.632 501.42 336.828 501.42 339.026 502.233C341.273 503.097 342.272 504.775 343.77 504.267C344.918 503.911 345.717 502.487 345.867 501.369C346.366 497.658 339.375 493.846 338.227 493.236C335.979 492.016 334.931 491.863 333.483 490.338C331.685 488.407 331.086 486.119 330.836 485.102C326.691 469.039 324.644 470.056 321.847 451.603C319.75 437.675 321.098 438.488 318.951 427.407C317.453 419.578 316.204 416.376 315.805 409.615C315.355 402.193 316.204 396.398 317.103 391.264C320.848 370.27 328.039 344.853 329.787 338.804C328.189 336.262 325.992 333.721 323.495 333.873Z" fill="#3F3F3F"/>
<path d="M425.418 124.898C423.87 124.847 422.671 127.693 422.371 128.456C421.922 129.574 421.223 131.76 421.722 134.861C421.722 134.861 422.022 136.996 423.021 149.908C423.27 152.805 423.32 157.024 422.571 162.311C420.574 167.903 418.676 172.274 417.378 175.121C412.983 184.678 410.037 188.49 403.895 200.588C401.597 205.113 401.398 205.824 398.701 211.416C391.96 225.293 387.016 233.986 381.972 243.288C377.528 251.422 371.285 263.368 363.945 278.719C363.595 280.041 361.847 287.107 365.892 293.308C370.187 299.866 379.175 302.814 387.865 299.968C389.213 298.036 391.111 295.037 392.858 291.123C394.556 287.31 395.355 284.362 395.905 282.481C396.454 280.6 398.651 274.246 403.096 261.436C404.494 257.471 406.192 252.743 409.637 243.492C414.881 229.309 417.478 222.243 419.225 217.821C423.17 207.756 426.167 200.792 432.059 187.27C435.155 180.153 438.951 171.563 443.345 161.803C445.892 160.328 449.388 158.041 453.133 154.737C458.526 150.009 461.223 145.993 466.416 138.368C469.762 133.387 472.309 129.015 471.61 124.643C471.51 124.033 471.26 122.254 470.311 122C469.113 121.644 467.615 124.084 465.967 126.219C464.269 128.405 461.722 131.252 457.927 134.2C459.225 130.54 460.524 127.693 461.423 125.813C463.47 121.543 465.168 118.798 466.217 114.07C467.365 109.038 466.316 108.123 466.017 107.868C464.669 106.852 462.371 108.783 461.023 107.665C459.825 106.598 460.873 104.259 459.924 103.7C458.976 103.141 456.878 104.818 455.38 106.598C452.783 109.648 452.184 112.596 451.235 115.443C450.336 118.238 448.689 122.051 445.592 126.27C444.843 126.372 443.845 126.423 443.395 125.813C442.896 125.101 443.595 123.932 444.244 122.051C444.394 121.593 444.294 121.848 445.343 117.171C445.742 115.392 446.491 112.088 447.091 109.444C447.939 105.632 448.339 104.056 447.54 102.378C447.39 102.023 446.741 100.65 445.792 100.599C444.694 100.548 443.845 102.328 443.195 103.7C440.549 109.241 439.2 112.037 438.851 113.003C437.103 117.832 434.756 125.203 434.406 127.744C434.356 128.049 434.257 129.117 433.757 130.489C433.507 131.15 433.358 131.404 433.208 131.811C431.959 134.658 433.008 136.538 431.71 137.555C431.56 137.657 430.811 138.216 430.212 138.013C429.562 137.809 429.263 136.945 428.913 134.048C428.414 130.083 428.714 128.913 427.815 127.185C427.215 126.423 426.466 124.948 425.418 124.898Z" fill="white"/>
<path d="M423.021 148.433C423.37 144.723 422.821 141.113 422.621 137.403C422.521 135.623 422.521 133.793 422.771 132.014C422.921 130.998 423.12 129.981 423.42 129.015C423.919 127.541 423.969 126.321 425.567 126.27C427.065 126.219 426.966 127.134 427.215 128.405C427.465 129.523 427.515 130.693 427.565 131.811C427.665 133.387 427.715 135.013 428.064 136.538C428.414 138.114 429.363 139.436 431.11 138.877C432.009 138.572 431.66 137.098 430.711 137.403C428.963 137.911 429.113 131.913 429.013 130.896C428.863 129.269 428.713 127.592 428.114 126.067C427.265 123.932 425.318 122.864 423.67 124.847C421.522 127.388 421.073 131.963 421.073 135.115C421.073 139.588 421.922 143.96 421.522 148.433C421.472 149.399 422.971 149.399 423.021 148.433Z" fill="#161616"/>
<path d="M431.71 138.267C434.207 133.336 434.956 127.744 436.404 122.457C437.952 116.764 439.899 111.172 442.796 106.089C443.445 104.971 444.094 103.395 445.043 102.531C446.891 100.802 446.891 104.107 446.741 105.53C446.441 108.682 445.642 111.884 444.943 114.985C444.294 117.832 443.395 120.577 442.746 123.423C442.396 124.999 442.396 126.372 443.495 127.592C444.144 128.303 445.193 127.236 444.544 126.524C443.295 125.152 444.594 122.407 444.993 120.932C445.443 119.255 445.892 117.577 446.242 115.9C446.941 112.799 447.64 109.647 448.089 106.445C448.339 104.767 448.688 101.819 447.24 100.548C445.992 99.4808 444.743 100.497 443.894 101.514C440.249 106.14 438.002 112.24 436.204 117.832C434.157 124.287 433.507 131.506 430.411 137.555C429.962 138.368 431.26 139.131 431.71 138.267Z" fill="#161616"/>
<path d="M443.845 127.744C445.343 127.897 445.892 126.778 446.591 125.558C447.69 123.627 448.688 121.593 449.637 119.611C451.485 115.748 452.783 111.528 455.031 107.919C455.53 107.106 456.129 106.089 456.928 105.479C457.577 104.717 458.426 104.463 459.525 104.818C459.675 105.53 459.775 106.242 459.775 106.953C459.825 109.444 459.026 111.935 458.177 114.273C456.479 118.899 454.581 123.474 452.733 128.1C452.384 129.015 453.832 129.422 454.182 128.507C455.23 125.863 466.017 102.683 458.976 102.531C457.577 102.48 455.979 104.259 455.18 105.225C453.782 106.903 452.783 108.834 451.884 110.817C450.836 113.206 449.887 115.595 448.788 117.933C448.139 119.357 447.39 120.831 446.691 122.203C446.242 123.118 445.143 126.27 443.894 126.168C442.896 126.118 442.896 127.643 443.845 127.744Z" fill="#161616"/>
<path d="M461.522 109.037C462.072 106.089 465.218 108.122 465.617 110.003C465.967 111.579 465.368 113.155 464.868 114.629C464.119 116.866 463.27 119.052 462.371 121.187C460.624 125.355 458.576 129.32 456.279 133.234C455.78 134.098 457.078 134.861 457.577 133.997C459.725 130.387 461.622 126.626 463.32 122.813C464.768 119.509 466.516 115.849 467.065 112.24C467.415 109.952 466.766 107.004 464.269 106.191C462.421 105.581 460.424 106.75 460.074 108.682C459.924 109.597 461.373 110.003 461.522 109.037Z" fill="#161616"/>
<path d="M458.626 134.607C460.524 132.421 462.371 130.235 464.269 128.049C465.268 126.88 466.166 125.609 467.265 124.592C467.615 124.287 467.964 124.033 468.264 123.728C469.113 124.033 469.962 124.338 470.861 124.643C471.11 125.101 470.511 126.422 470.361 126.829C468.813 131.658 466.566 136.233 463.919 140.503C458.576 149.094 451.235 156.312 442.646 161.548C441.797 162.057 442.596 163.378 443.395 162.87C454.082 156.363 462.871 146.807 468.414 135.471C469.762 132.726 471.06 129.828 471.909 126.88C472.409 125.152 472.708 122.813 470.761 121.898C468.863 120.983 466.866 122.762 465.667 124.033C462.821 127.032 460.224 130.387 457.527 133.539C456.928 134.251 457.977 135.318 458.626 134.607Z" fill="#161616"/>
<path d="M421.722 146.857C422.072 151.534 422.421 156.312 421.672 160.989C420.923 165.615 419.026 169.885 416.928 174.053C412.684 182.492 408.239 190.828 403.895 199.216C395.205 215.991 386.516 232.715 377.827 249.49C372.833 259.097 367.84 268.756 362.846 278.363C362.396 279.227 363.695 279.99 364.144 279.126C382.072 244.508 400.349 210.043 417.977 175.222C420.074 171.105 422.022 166.886 422.871 162.362C423.87 157.227 423.52 152.042 423.12 146.857C423.17 145.892 421.672 145.892 421.722 146.857Z" fill="#161616"/>
<path d="M442.546 161.193C426.566 195.556 412.634 230.733 400.349 266.621C396.753 277.042 393.158 287.463 388.813 297.578C388.414 298.493 389.712 299.256 390.112 298.341C397.552 281.108 402.996 263.063 409.388 245.474C415.929 227.378 423.021 209.433 430.561 191.743C434.856 181.729 439.25 171.817 443.844 161.955C444.244 161.091 442.946 160.328 442.546 161.193Z" fill="#161616"/>
<path opacity="0.1" d="M465.118 108.427C463.07 108.122 460.324 116.662 458.726 120.932C453.882 134.047 449.787 135.572 439.4 153.364C435.555 159.922 430.262 169.783 424.918 182.644C408.938 216.906 393.008 251.218 377.028 285.48C380.923 290.309 384.768 295.189 388.664 300.018C390.611 294.376 393.458 286.09 397.003 276.076C403.445 258.03 411.785 234.799 423.57 206.536C428.264 195.352 434.756 180.255 443.095 162.514C445.393 161.04 448.589 158.752 452.084 155.601C456.778 151.432 462.971 145.79 467.215 136.589C468.564 133.742 470.261 129.371 471.16 123.627C470.511 123.322 469.562 122.966 468.514 123.169C466.716 123.525 465.767 125.304 465.018 126.524C462.122 131.048 457.877 134.047 457.328 133.692C457.028 133.437 457.877 131.963 460.174 127.185C464.868 117.374 462.921 119.967 464.768 116.662C465.817 114.782 466.866 113.155 466.516 111.071C466.516 110.156 465.967 108.58 465.118 108.427Z" fill="#3F3F3F"/>
<path opacity="0.13" d="M462.072 143.096C459.575 144.722 456.029 147.112 451.984 150.263C447.34 153.822 442.346 157.685 438.152 162.565C432.459 169.173 429.962 175.731 428.464 179.543C414.731 215.228 398.401 253.963 393.757 264.74C391.21 270.637 387.215 279.532 381.922 290.207C384.319 293.41 386.766 296.612 389.163 299.815C396.054 278.414 403.994 255.997 413.083 232.766C422.871 207.807 433.008 184.474 443.195 162.768C445.942 160.887 449.038 158.498 452.184 155.397C456.628 151.077 459.824 146.705 462.072 143.096Z" fill="#3F3F3F"/>
<path d="M329.288 290.257C327.44 291.528 323.295 294.477 319.051 299.255C314.656 304.186 312.109 308.812 310.012 312.726C308.364 315.725 307.166 318.368 306.317 320.3C307.615 322.842 309.712 326.756 312.609 331.432C317.752 339.718 321.747 344.192 328.639 353.189C331.535 356.951 335.73 362.593 340.724 369.71C341.523 373.522 342.222 377.538 342.821 381.757C344.02 390.399 344.469 398.431 344.469 405.649C346.317 407.683 349.513 410.631 354.207 412.715C361.997 416.223 369.088 415.206 372.783 414.596C380.973 413.325 386.566 409.614 390.411 407.022C397.403 402.345 402.147 396.753 405.293 392.128C404.644 384.198 403.795 376.013 402.746 367.524C401.847 360.306 400.848 353.291 399.75 346.479C399.65 341.142 399.15 333.872 397.453 325.434C396.054 318.368 394.356 310.133 389.313 300.373C383.021 288.224 375.18 280.853 372.134 278.159C369.438 275.77 366.991 273.991 365.193 272.72C357.902 277.447 351.61 280.396 347.315 282.175C339.325 285.53 335.58 286.038 329.288 290.257Z" fill="white"/>
<path d="M307.116 320.504C308.664 314.506 312.958 308.914 316.654 304.034C320.549 298.951 324.943 294.325 330.187 290.614C330.986 290.055 330.237 288.733 329.438 289.293C324.044 293.105 319.5 297.833 315.505 303.068C311.66 308.101 307.315 313.794 305.717 320.047C305.468 321.063 306.916 321.419 307.116 320.504Z" fill="#161616"/>
<path d="M306.017 321.013C316.304 339.313 328.489 356.494 342.322 372.202C342.971 372.913 344.02 371.846 343.37 371.134C329.637 355.528 317.553 338.448 307.315 320.25C306.816 319.386 305.518 320.148 306.017 321.013Z" fill="#161616"/>
<path d="M348.264 282.887C353.857 278.872 360 275.872 366.541 273.941C367.49 273.687 367.091 272.212 366.142 272.467C359.45 274.449 353.208 277.499 347.515 281.566C346.716 282.125 347.465 283.447 348.264 282.887Z" fill="#161616"/>
<path d="M365.293 274.347C389.163 291.275 399.4 320.962 398.252 349.682C398.202 350.648 399.7 350.648 399.75 349.682C400.948 320.352 390.361 290.258 366.042 273.026C365.293 272.467 364.544 273.788 365.293 274.347Z" fill="#161616"/>
<path d="M339.076 369.202C341.672 374.642 341.972 381.402 342.521 387.299C343.121 393.297 343.32 399.347 343.32 405.396C343.32 406.362 344.818 406.362 344.818 405.396C344.868 398.686 344.569 391.976 343.82 385.317C343.22 379.674 342.821 373.574 340.374 368.389C339.925 367.525 338.676 368.287 339.076 369.202Z" fill="#161616"/>
<path d="M344.269 405.701C351.76 415.054 364.544 417.697 375.68 414.8C381.872 413.173 387.615 410.072 392.758 406.209C397.902 402.346 402.796 397.872 405.692 391.976C406.142 391.111 404.843 390.349 404.394 391.213C401.597 396.856 396.903 401.176 391.959 404.887C387.165 408.496 381.822 411.445 376.029 413.122C365.143 416.223 352.609 413.834 345.268 404.633C344.719 403.871 343.67 404.938 344.269 405.701Z" fill="#161616"/>
<path d="M398.801 347.395C401.248 362.289 403.645 377.183 404.494 392.23C404.544 393.196 406.042 393.196 405.992 392.23C405.093 377.031 402.696 361.984 400.249 346.988C400.099 346.022 398.651 346.429 398.801 347.395Z" fill="#161616"/>
<path opacity="0.13" d="M350.162 280.854C355.705 287.513 363.295 297.883 369.637 311.913C378.926 332.45 380.774 350.191 382.172 365.288C383.27 376.777 383.87 392.789 381.672 411.903C385.917 410.022 391.91 406.768 397.702 401.126C400.898 397.974 403.295 394.823 405.093 392.078C403.445 377.895 401.797 363.662 400.149 349.479C400.449 337.788 398.651 328.333 396.953 321.928C391.71 302.103 381.622 289.343 378.227 285.328C373.583 279.787 369.038 275.72 365.692 273.026C360.499 275.669 355.355 278.262 350.162 280.854Z" fill="#3F3F3F"/>
<path opacity="0.14" d="M387.365 298.646C386.466 298.9 388.564 307.186 390.561 319.437C390.561 319.437 393.607 338.042 394.257 356.037C394.706 367.932 394.107 385.317 388.863 406.921C391.26 405.701 394.207 403.922 397.253 401.431C400.948 398.381 403.595 395.178 405.393 392.637C404.744 372.151 403.046 361.527 401.448 355.528C401.148 354.359 400.349 351.614 399.7 347.751C398.501 340.533 399.101 337.432 398.451 331.433C397.952 326.655 397.003 323.503 395.255 317.658C392.609 308.863 388.364 298.341 387.365 298.646Z" fill="#3F3F3F"/>
<path d="M328.588 206.637C325.292 208.518 321.097 211.365 317.052 215.686C308.663 224.785 305.966 234.952 305.017 239.984C304.268 239.882 302.221 239.73 300.573 241.052C298.126 242.983 298.076 246.796 299.025 249.032C299.374 249.846 299.874 250.507 300.922 251.828C302.171 253.404 302.97 254.37 304.268 254.929C304.818 255.183 306.066 255.539 307.864 255.132C308.413 256.81 309.312 259.148 310.66 261.842C312.408 265.299 315.055 270.433 320.348 274.907C321.896 276.228 324.293 277.957 327.539 279.532C328.738 281.108 330.935 284.412 331.185 288.886C331.684 296.765 326.041 303.322 320.698 306.22C311.409 311.252 301.322 306.22 297.627 304.339C295.629 303.322 285.592 298.036 281.397 286.446C276.303 272.467 282.945 258.487 286.89 250.151C290.885 241.763 292.733 242.322 295.779 234.138C299.824 223.311 297.676 219.498 302.321 211.212C304.118 207.959 307.764 201.452 315.404 198.402C321.946 195.81 327.989 197.132 330.585 197.894C332.733 196.572 336.528 194.692 341.322 194.692C352.708 194.692 359.998 205.672 361.746 208.315C366.94 216.092 364.193 218.482 368.837 229.411C374.68 243.187 380.373 242.373 385.616 255.285C388.163 261.588 392.408 272.009 387.714 281.972C382.87 292.241 371.834 295.24 370.435 295.596C367.889 296.257 361.047 297.985 354.206 294.274C353.557 293.918 344.967 289.14 344.268 280.956C344.018 277.957 344.867 275.161 345.067 274.551C346.116 271.247 347.914 269.112 348.463 268.4C350.61 265.706 353.207 260.724 355.005 250.812C355.854 250.761 357.252 250.557 358.65 249.744C361.596 248.016 362.995 244.508 362.845 241.458C362.795 240.747 362.595 236.68 359.699 235.307C358.5 234.748 357.252 234.901 356.553 235.053C347.264 225.497 337.926 216.092 328.588 206.637Z" fill="#A771A2"/>
<path d="M328.589 206.587C323.046 209.891 319.201 213.551 316.754 216.245C308.614 225.243 306.017 234.647 305.468 236.833C305.118 238.205 304.868 239.323 304.769 240.137C304.219 239.933 302.971 239.578 301.722 240.137C299.825 241.001 299.425 243.339 299.226 244.508C298.726 247.203 299.725 249.338 300.124 250.151C300.674 251.32 301.573 253.201 303.72 254.167C305.468 254.98 307.116 254.675 307.815 254.523C308.514 256.353 309.513 258.894 311.061 261.792C313.408 266.367 315.605 270.586 319.85 274.348C321.498 275.822 324.194 277.855 328.089 279.431C328.888 280.702 329.987 282.684 330.586 285.277C331.086 287.31 331.186 289.038 331.136 290.36C332.434 291.021 334.881 292.038 337.927 291.987C343.77 291.885 347.615 288.174 348.514 287.259C347.565 284.362 346.716 280.803 346.367 276.686C346.217 274.805 346.167 273.026 346.167 271.399C347.715 269.722 349.613 267.333 351.161 264.13C353.907 258.589 354.357 253.455 354.407 250.456C355.106 250.558 356.504 250.71 358.002 250.1C360.099 249.236 361.048 247.355 361.597 246.288C361.747 246.033 363.845 241.662 361.947 237.341C361.498 236.375 360.749 234.596 359.25 234.443C358.152 234.342 357.253 235.206 356.903 235.562C354.856 233.071 351.011 228.445 345.617 222.091C340.973 216.55 338.027 213.093 333.083 209.535C331.285 208.213 329.687 207.248 328.589 206.587Z" fill="white"/>
<path d="M321.697 260.521C321.198 261.69 323.545 263.774 324.644 264.638C326.941 266.367 329.388 266.621 330.287 266.672C331.335 266.773 334.781 267.027 337.927 264.74C338.676 264.181 340.774 262.707 341.573 259.962C342.122 257.979 341.972 255.234 340.923 254.777C340.124 254.472 339.375 255.488 337.677 256.708C334.681 258.792 331.585 259.301 328.938 259.707C324.444 260.419 322.197 259.504 321.697 260.521Z" fill="black"/>
<path d="M305.867 248.778C307.665 256.403 310.561 263.876 315.355 270.077C319.6 275.618 325.892 280.956 333.233 280.244C340.024 279.583 345.568 274.195 349.163 268.705C353.408 262.3 355.455 254.624 355.255 246.897C355.205 245.932 353.707 245.932 353.757 246.897C353.957 253.963 352.159 260.877 348.514 266.875C345.068 272.517 339.375 278.465 332.434 278.77C325.093 279.075 319.051 272.975 315.156 267.282C311.26 261.588 308.863 255.031 307.265 248.321C307.066 247.406 305.618 247.812 305.867 248.778Z" fill="#161616"/>
<path d="M327.091 279.533C329.188 282.786 330.237 286.344 330.237 290.258C330.237 291.224 331.735 291.224 331.735 290.258C331.735 286.141 330.586 282.227 328.389 278.77C327.89 277.906 326.591 278.668 327.091 279.533Z" fill="#161616"/>
<path d="M330.936 290.868C337.028 294.427 344.918 292.698 349.063 287.005C349.662 286.243 348.364 285.48 347.765 286.243C344.069 291.275 336.978 292.698 331.685 289.547C330.836 289.089 330.087 290.411 330.936 290.868Z" fill="#161616"/>
<path d="M345.318 272.721C345.368 277.347 346.067 281.922 347.515 286.344C347.815 287.259 349.263 286.852 348.963 285.937C347.615 281.617 346.866 277.245 346.816 272.721C346.816 271.704 345.318 271.704 345.318 272.721Z" fill="#161616"/>
<path d="M307.365 253.607C306.716 254.319 305.118 254.065 304.369 253.658C303.77 253.353 303.221 252.896 302.771 252.438C301.772 251.472 300.973 250.303 300.474 249.032C299.475 246.643 299.026 239.781 303.47 241.001C304.419 241.255 304.819 239.781 303.87 239.527C298.377 238.052 297.528 245.474 298.926 249.185C300.025 252.184 305.068 258.386 308.464 254.675C309.063 253.963 308.015 252.896 307.365 253.607Z" fill="#161616"/>
<path d="M357.553 235.816C358.152 233.783 360.749 237.697 361.048 238.408C361.647 240.035 361.847 241.814 361.597 243.543C361.198 246.999 358.501 250.303 354.756 249.338C353.807 249.083 353.408 250.558 354.357 250.812C360.399 252.388 363.645 245.983 363.096 240.747C362.846 238.459 361.947 235.511 359.8 234.291C358.402 233.528 356.604 233.732 356.104 235.358C355.805 236.375 357.253 236.731 357.553 235.816Z" fill="#161616"/>
<path d="M312.709 225.039C314.357 221.837 317.253 219.753 320.749 219.244C321.697 219.092 321.298 217.618 320.349 217.77C316.504 218.329 313.208 220.769 311.41 224.277C310.961 225.141 312.259 225.903 312.709 225.039Z" fill="#161616"/>
<path d="M335.78 217.211C339.975 216.194 344.169 218.329 346.067 222.193C346.516 223.057 347.765 222.294 347.365 221.43C345.168 216.906 340.174 214.568 335.38 215.737C334.431 215.991 334.831 217.465 335.78 217.211Z" fill="#161616"/>
<path d="M324.893 223.463C325.842 228.852 326.092 234.392 325.543 239.882C325.343 241.56 324.544 243.949 325.293 245.627C326.092 247.457 328.239 249.032 329.588 250.456C330.237 251.167 331.335 250.1 330.636 249.388C329.737 248.422 328.838 247.507 327.94 246.542C326.541 245.067 326.392 244.61 326.691 242.475C326.941 240.543 327.191 238.561 327.29 236.578C327.49 232.054 327.141 227.53 326.342 223.107C326.192 222.091 324.744 222.497 324.893 223.463Z" fill="#161616"/>
<path d="M318.601 236.527C317.852 235.307 317.503 233.986 317.603 232.562C317.603 232.257 317.802 230.936 318.052 230.885C318.202 230.885 318.452 232.664 318.501 232.867C318.601 233.528 318.651 234.24 318.651 234.901C318.651 235.104 318.601 236.782 318.601 235.765C318.551 234.291 318.651 232.817 318.701 231.342C318.202 231.393 317.702 231.495 317.253 231.546C317.503 233.122 317.653 234.697 317.653 236.324C318.152 236.324 318.651 236.324 319.151 236.324C319.151 236.121 319.151 235.917 319.151 235.714C319.151 234.748 317.653 234.748 317.653 235.714C317.653 235.917 317.653 236.121 317.653 236.324C317.653 237.29 319.151 237.29 319.151 236.324C319.151 234.596 319.001 232.867 318.701 231.139C318.551 230.275 317.253 230.529 317.253 231.342C317.203 232.969 317.003 234.748 317.203 236.375C317.303 237.137 317.653 237.849 318.501 238.002C320.998 238.51 320.249 233.528 320.05 232.308C319.9 231.342 319.75 229.868 318.851 229.309C318.102 228.852 317.303 229.309 316.854 230.021C315.605 232.156 316.304 235.307 317.453 237.239C317.802 238.103 319.101 237.341 318.601 236.527Z" fill="#161616"/>
<path d="M341.672 233.833C340.923 232.613 340.574 231.292 340.674 229.868C340.674 229.563 340.873 228.242 341.123 228.191C341.273 228.191 341.523 229.97 341.573 230.173C341.672 230.834 341.722 231.546 341.722 232.207C341.722 232.41 341.672 234.087 341.672 233.071C341.622 231.597 341.722 230.122 341.772 228.648C341.273 228.699 340.774 228.801 340.324 228.852C340.574 230.428 340.724 232.003 340.724 233.63C341.223 233.63 341.722 233.63 342.222 233.63C342.222 233.427 342.222 233.223 342.222 233.02C342.222 232.054 340.724 232.054 340.724 233.02C340.724 233.223 340.724 233.427 340.724 233.63C340.724 234.596 342.222 234.596 342.222 233.63C342.222 231.902 342.072 230.173 341.772 228.445C341.622 227.581 340.324 227.835 340.324 228.648C340.274 230.275 340.074 232.054 340.274 233.681C340.374 234.443 340.724 235.155 341.573 235.307C344.069 235.816 343.32 230.834 343.121 229.614C342.971 228.648 342.821 227.174 341.922 226.615C341.173 226.158 340.374 226.615 339.925 227.327C338.676 229.462 339.375 232.613 340.524 234.545C340.873 235.46 342.172 234.697 341.672 233.833Z" fill="#161616"/>
<path d="M311.211 241.204C312.159 241.204 312.159 239.679 311.211 239.679C310.262 239.679 310.262 241.204 311.211 241.204Z" fill="#161616"/>
<path d="M317.103 242.323C317.153 242.323 317.203 242.323 317.303 242.323C317.702 242.323 318.052 241.967 318.052 241.56C318.052 241.153 317.702 240.798 317.303 240.798C317.253 240.798 317.203 240.798 317.103 240.798C316.704 240.798 316.354 241.153 316.354 241.56C316.354 241.967 316.654 242.323 317.103 242.323Z" fill="#161616"/>
<path d="M313.608 246.999C314.556 246.999 314.556 245.474 313.608 245.474C312.659 245.474 312.609 246.999 313.608 246.999Z" fill="#161616"/>
<path d="M341.972 240.442C342.022 240.442 342.072 240.442 342.172 240.442C342.571 240.442 342.921 240.086 342.921 239.679C342.921 239.273 342.571 238.917 342.172 238.917C342.122 238.917 342.072 238.917 341.972 238.917C341.573 238.917 341.223 239.273 341.223 239.679C341.223 240.086 341.523 240.442 341.972 240.442Z" fill="#161616"/>
<path d="M347.465 236.68C348.414 236.68 348.414 235.155 347.465 235.155C346.516 235.155 346.516 236.68 347.465 236.68Z" fill="#161616"/>
<path d="M346.716 240.797C346.766 240.797 346.816 240.797 346.916 240.797C347.315 240.797 347.665 240.442 347.665 240.035C347.665 239.628 347.315 239.272 346.916 239.272C346.866 239.272 346.816 239.272 346.716 239.272C346.317 239.272 345.967 239.628 345.967 240.035C346.017 240.442 346.317 240.797 346.716 240.797Z" fill="#161616"/>
<path d="M322.946 261.69C322.147 260.521 320.848 258.843 321.398 257.318C322.047 255.59 324.094 255.844 325.443 256.048C327.091 256.302 328.439 256.607 330.037 256.098C331.335 255.692 332.484 254.828 333.682 254.167C336.529 252.54 339.875 252.387 340.774 256.2C343.32 266.621 325.243 269.569 322.446 260.419C322.147 259.504 320.699 259.86 320.998 260.826C324.444 272.06 345.817 267.892 342.072 255.438C341.423 253.353 339.875 251.574 337.677 251.32C334.082 250.964 331.735 254.624 328.289 254.878C325.742 255.082 322.646 253.099 320.599 255.539C318.751 257.725 320.249 260.521 321.598 262.453C322.197 263.266 323.495 262.503 322.946 261.69Z" fill="#161616"/>
<path d="M320.049 258.792C321.148 261.893 326.641 260.927 329.038 260.571C333.632 259.86 337.827 257.826 341.373 254.827C342.122 254.217 341.073 253.099 340.324 253.76C337.727 255.997 334.731 257.623 331.435 258.538C329.987 258.945 322.347 260.673 321.548 258.436C321.148 257.471 319.7 257.877 320.049 258.792Z" fill="#161616"/>
<path d="M328.938 281.108C334.781 282.633 342.571 278.872 345.867 273.941C346.416 273.127 345.118 272.365 344.569 273.178C341.672 277.499 334.431 280.956 329.338 279.634C328.389 279.38 327.99 280.854 328.938 281.108Z" fill="#161616"/>
<path d="M329.488 281.566C334.681 284.87 343.22 280.193 345.717 275.161C346.167 274.297 344.868 273.534 344.419 274.398C342.322 278.668 334.681 283.091 330.237 280.295C329.388 279.736 328.639 281.057 329.488 281.566Z" fill="#161616"/>
<path opacity="0.2" d="M350.212 227.683C350.561 229.513 351.011 232.41 351.31 235.918C352.009 245.271 353.208 260.928 343.92 271.348C341.922 273.585 337.677 277.55 329.837 279.787C332.334 279.685 335.38 279.38 338.676 278.516C340.324 278.109 341.822 277.601 343.171 277.042C343.37 281.566 343.52 286.09 343.72 290.614C345.418 289.496 347.066 288.428 348.764 287.31C346.466 282.125 346.466 278.109 346.766 275.568C347.215 272.009 348.514 269.112 349.812 266.214C350.961 263.673 352.159 261.639 353.108 260.216C353.208 261.283 353.458 262.402 354.157 263.469C357.203 268.095 366.741 268.553 372.734 264.588C378.277 260.928 380.973 253.506 379.575 245.881C380.524 246.694 381.523 247.66 382.471 248.829C383.22 249.744 385.168 252.388 387.865 261.69C388.714 264.588 389.113 266.062 389.363 267.536C389.662 269.569 390.212 273.433 389.163 277.804C387.365 285.328 382.022 289.648 380.424 290.868C379.275 291.733 375.78 294.325 370.536 295.545C368.039 296.104 360.549 297.934 353.508 293.766C350.861 292.19 349.413 291.021 348.614 289.598C347.765 288.022 347.665 286.548 347.565 285.429C347.116 278.465 346.916 274.958 347.365 272.568C348.714 265.655 351.76 264.943 353.458 257.064C354.057 254.218 354.207 251.828 354.257 250.303C354.906 250.405 355.905 250.507 357.103 250.202C359.6 249.541 360.848 247.457 361.298 246.694C363.096 243.797 363.895 238.612 361.098 236.223C360.699 235.867 359.3 234.799 356.604 235.003C354.556 232.563 352.409 230.123 350.212 227.683Z" fill="#3F3F3F"/>
<path opacity="0.13" d="M326.541 244.153C329.088 244.915 331.685 245.728 334.232 246.491C333.583 247.101 332.933 247.66 332.234 248.27C331.585 248.829 330.986 249.287 330.337 249.795C329.538 249.185 328.389 248.118 327.49 246.491C326.991 245.627 326.691 244.813 326.541 244.153Z" fill="#3F3F3F"/>
<path opacity="0.16" d="M286.491 250.507C281.048 270.078 285.093 285.887 293.233 289.343C299.625 292.038 311.161 288.225 313.308 281.566C313.608 280.702 313.907 279.177 312.759 274.5C311.76 270.383 309.712 264.181 305.118 257.115C304.319 256.607 303.27 255.793 302.272 254.573C300.524 252.388 300.025 250.049 299.875 248.931C301.323 250.456 303.42 252.388 304.769 251.778C306.067 251.168 306.866 249.338 306.417 247.508C306.866 249.846 307.565 253.048 308.863 256.759C310.561 261.69 312.259 266.468 316.204 270.993C318.002 273.077 321.548 276.483 327.54 278.923C328.539 280.193 330.387 282.938 330.986 286.954C331.086 287.564 331.435 290.36 330.536 293.868C330.337 294.681 329.138 299.103 325.193 302.916C320.599 307.389 315.106 308.203 313.308 308.457C299.775 310.287 289.288 298.239 287.44 296.155C285.593 294.02 282.546 290.462 280.799 284.972C278.002 276.228 280.149 268.349 281.697 262.605C283.146 257.217 285.093 253.15 286.491 250.507Z" fill="#3F3F3F"/>
</svg>
