<svg width="378" height="45" viewBox="0 0 378 45" fill="none" xmlns="http://www.w3.org/2000/svg">
<rect y="10" width="25" height="25" rx="12.5" fill="#6CC2BD"/>
<rect x="36" y="10" width="25" height="25" rx="12.5" fill="#A771A2"/>
<rect x="72" y="10" width="25" height="25" rx="12.5" fill="#FF8B2B"/>
<path d="M133.636 9.512C134.428 9.512 135.22 9.584 136.012 9.728C136.828 9.848 137.56 10.052 138.208 10.34C138.856 10.604 139.384 10.94 139.792 11.348C140.224 11.732 140.44 12.188 140.44 12.716C140.44 13.268 140.296 13.688 140.008 13.976C139.72 14.264 139.36 14.408 138.928 14.408C138.52 14.408 138.16 14.348 137.848 14.228C137.536 14.084 137.176 13.928 136.768 13.76C136.384 13.592 135.916 13.448 135.364 13.328C134.812 13.184 134.08 13.112 133.168 13.112C132.256 13.112 131.38 13.352 130.54 13.832C129.724 14.288 129.004 14.936 128.38 15.776C127.78 16.592 127.3 17.564 126.94 18.692C126.58 19.82 126.4 21.044 126.4 22.364C126.4 23.996 126.604 25.4 127.012 26.576C127.444 27.752 127.996 28.724 128.668 29.492C129.34 30.236 130.096 30.8 130.936 31.184C131.8 31.544 132.664 31.724 133.528 31.724C134.56 31.724 135.424 31.616 136.12 31.4C136.816 31.184 137.404 30.944 137.884 30.68C138.388 30.416 138.82 30.176 139.18 29.96C139.54 29.744 139.888 29.636 140.224 29.636C140.632 29.636 140.956 29.756 141.196 29.996C141.436 30.212 141.556 30.608 141.556 31.184C141.556 31.664 141.364 32.156 140.98 32.66C140.62 33.14 140.08 33.584 139.36 33.992C138.664 34.376 137.824 34.7 136.84 34.964C135.856 35.204 134.752 35.324 133.528 35.324C132.184 35.324 130.84 35.06 129.496 34.532C128.176 34.004 126.988 33.224 125.932 32.192C124.9 31.136 124.06 29.828 123.412 28.268C122.764 26.684 122.44 24.848 122.44 22.76C122.44 20.672 122.728 18.812 123.304 17.18C123.904 15.548 124.708 14.168 125.716 13.04C126.748 11.888 127.936 11.012 129.28 10.412C130.648 9.812 132.1 9.512 133.636 9.512ZM153.063 16.748C154.431 16.748 155.655 16.964 156.735 17.396C157.815 17.804 158.727 18.392 159.471 19.16C160.239 19.928 160.827 20.864 161.235 21.968C161.643 23.072 161.847 24.308 161.847 25.676C161.847 27.188 161.607 28.544 161.127 29.744C160.671 30.944 160.023 31.964 159.183 32.804C158.367 33.644 157.383 34.292 156.231 34.748C155.103 35.204 153.867 35.432 152.523 35.432C151.059 35.432 149.763 35.18 148.635 34.676C147.531 34.172 146.595 33.488 145.827 32.624C145.083 31.76 144.519 30.764 144.135 29.636C143.751 28.508 143.559 27.32 143.559 26.072C143.559 24.704 143.775 23.456 144.207 22.328C144.663 21.176 145.299 20.192 146.115 19.376C146.955 18.536 147.963 17.888 149.139 17.432C150.315 16.976 151.623 16.748 153.063 16.748ZM152.667 32.12C153.651 32.12 154.491 31.952 155.187 31.616C155.883 31.256 156.447 30.788 156.879 30.212C157.335 29.636 157.659 28.988 157.851 28.268C158.067 27.524 158.175 26.756 158.175 25.964C158.175 25.148 158.067 24.392 157.851 23.696C157.659 22.976 157.347 22.352 156.915 21.824C156.507 21.296 155.967 20.888 155.295 20.6C154.647 20.288 153.867 20.132 152.955 20.132C152.019 20.132 151.203 20.288 150.507 20.6C149.811 20.912 149.223 21.344 148.743 21.896C148.287 22.424 147.939 23.06 147.699 23.804C147.459 24.548 147.339 25.352 147.339 26.216C147.339 27.968 147.783 29.396 148.671 30.5C149.583 31.58 150.915 32.12 152.667 32.12ZM189.331 33.92C189.187 33.512 189.091 33.056 189.043 32.552C189.019 32.048 189.007 31.424 189.007 30.68C189.007 30.152 189.007 29.744 189.007 29.456C189.031 29.144 189.043 28.88 189.043 28.664C189.043 28.424 189.043 28.196 189.043 27.98C189.067 27.74 189.079 27.416 189.079 27.008C189.079 26.168 189.055 25.328 189.007 24.488C188.983 23.624 188.863 22.856 188.647 22.184C188.431 21.488 188.095 20.924 187.639 20.492C187.183 20.06 186.523 19.844 185.659 19.844C184.195 19.844 183.055 20.54 182.239 21.932C181.423 23.324 180.931 25.544 180.763 28.592C180.715 29.552 180.691 30.428 180.691 31.22C180.691 32.012 180.643 32.696 180.547 33.272C180.451 33.824 180.271 34.256 180.007 34.568C179.767 34.88 179.359 35.036 178.783 35.036C178.255 35.036 177.871 34.904 177.631 34.64C177.391 34.352 177.211 33.932 177.091 33.38C176.995 32.828 176.935 32.156 176.911 31.364C176.911 30.572 176.875 29.648 176.803 28.592C176.731 27.44 176.611 26.336 176.443 25.28C176.299 24.224 176.047 23.3 175.687 22.508C175.351 21.692 174.883 21.044 174.283 20.564C173.707 20.084 172.963 19.844 172.051 19.844C171.187 19.844 170.515 20.06 170.035 20.492C169.579 20.9 169.243 21.452 169.027 22.148C168.811 22.82 168.679 23.588 168.631 24.452C168.607 25.292 168.595 26.144 168.595 27.008C168.595 27.44 168.595 27.764 168.595 27.98C168.619 28.172 168.631 28.352 168.631 28.52C168.631 28.688 168.631 28.904 168.631 29.168C168.655 29.432 168.667 29.84 168.667 30.392C168.667 31.184 168.643 31.868 168.595 32.444C168.571 33.02 168.487 33.512 168.343 33.92C168.175 34.4 167.947 34.7 167.659 34.82C167.371 34.916 167.107 34.964 166.867 34.964C166.123 34.964 165.643 34.7 165.427 34.172C165.211 33.644 165.091 32.876 165.067 31.868C165.067 31.316 165.055 30.704 165.031 30.032C165.031 29.336 165.031 28.496 165.031 27.512C165.031 27.032 165.031 26.612 165.031 26.252C165.031 25.892 165.031 25.544 165.031 25.208C165.055 24.872 165.067 24.536 165.067 24.2C165.091 23.84 165.115 23.432 165.139 22.976C165.211 21.512 165.475 20.348 165.931 19.484C166.387 18.596 166.927 17.924 167.551 17.468C168.175 17.012 168.847 16.724 169.567 16.604C170.287 16.46 170.947 16.388 171.547 16.388C172.843 16.388 173.935 16.58 174.823 16.964C175.711 17.348 176.431 17.852 176.983 18.476C177.559 19.1 177.979 19.808 178.243 20.6C178.531 21.392 178.723 22.196 178.819 23.012C178.915 22.22 179.107 21.44 179.395 20.672C179.707 19.88 180.151 19.184 180.727 18.584C181.327 17.96 182.095 17.456 183.031 17.072C183.967 16.688 185.119 16.496 186.487 16.496C187.135 16.496 187.795 16.568 188.467 16.712C189.163 16.832 189.799 17.12 190.375 17.576C190.951 18.032 191.431 18.692 191.815 19.556C192.223 20.396 192.463 21.536 192.535 22.976C192.559 23.432 192.571 23.84 192.571 24.2C192.595 24.536 192.607 24.872 192.607 25.208C192.631 25.544 192.643 25.892 192.643 26.252C192.643 26.612 192.643 27.032 192.643 27.512C192.643 28.496 192.631 29.336 192.607 30.032C192.607 30.704 192.607 31.316 192.607 31.868C192.607 32.324 192.583 32.744 192.535 33.128C192.511 33.512 192.439 33.836 192.319 34.1C192.199 34.364 192.019 34.58 191.779 34.748C191.563 34.892 191.239 34.964 190.807 34.964C190.399 34.964 190.087 34.892 189.871 34.748C189.655 34.58 189.475 34.304 189.331 33.92ZM221.112 33.92C220.968 33.512 220.872 33.056 220.824 32.552C220.8 32.048 220.788 31.424 220.788 30.68C220.788 30.152 220.788 29.744 220.788 29.456C220.812 29.144 220.824 28.88 220.824 28.664C220.824 28.424 220.824 28.196 220.824 27.98C220.848 27.74 220.86 27.416 220.86 27.008C220.86 26.168 220.836 25.328 220.788 24.488C220.764 23.624 220.644 22.856 220.428 22.184C220.212 21.488 219.876 20.924 219.42 20.492C218.964 20.06 218.304 19.844 217.44 19.844C215.976 19.844 214.836 20.54 214.02 21.932C213.204 23.324 212.712 25.544 212.544 28.592C212.496 29.552 212.472 30.428 212.472 31.22C212.472 32.012 212.424 32.696 212.328 33.272C212.232 33.824 212.052 34.256 211.788 34.568C211.548 34.88 211.14 35.036 210.564 35.036C210.036 35.036 209.652 34.904 209.412 34.64C209.172 34.352 208.992 33.932 208.872 33.38C208.776 32.828 208.716 32.156 208.692 31.364C208.692 30.572 208.656 29.648 208.584 28.592C208.512 27.44 208.392 26.336 208.224 25.28C208.08 24.224 207.828 23.3 207.468 22.508C207.132 21.692 206.664 21.044 206.064 20.564C205.488 20.084 204.744 19.844 203.832 19.844C202.968 19.844 202.296 20.06 201.816 20.492C201.36 20.9 201.024 21.452 200.808 22.148C200.592 22.82 200.46 23.588 200.412 24.452C200.388 25.292 200.376 26.144 200.376 27.008C200.376 27.44 200.376 27.764 200.376 27.98C200.4 28.172 200.412 28.352 200.412 28.52C200.412 28.688 200.412 28.904 200.412 29.168C200.436 29.432 200.448 29.84 200.448 30.392C200.448 31.184 200.424 31.868 200.376 32.444C200.352 33.02 200.268 33.512 200.124 33.92C199.956 34.4 199.728 34.7 199.44 34.82C199.152 34.916 198.888 34.964 198.648 34.964C197.904 34.964 197.424 34.7 197.208 34.172C196.992 33.644 196.872 32.876 196.848 31.868C196.848 31.316 196.836 30.704 196.812 30.032C196.812 29.336 196.812 28.496 196.812 27.512C196.812 27.032 196.812 26.612 196.812 26.252C196.812 25.892 196.812 25.544 196.812 25.208C196.836 24.872 196.848 24.536 196.848 24.2C196.872 23.84 196.896 23.432 196.92 22.976C196.992 21.512 197.256 20.348 197.712 19.484C198.168 18.596 198.708 17.924 199.332 17.468C199.956 17.012 200.628 16.724 201.348 16.604C202.068 16.46 202.728 16.388 203.328 16.388C204.624 16.388 205.716 16.58 206.604 16.964C207.492 17.348 208.212 17.852 208.764 18.476C209.34 19.1 209.76 19.808 210.024 20.6C210.312 21.392 210.504 22.196 210.6 23.012C210.696 22.22 210.888 21.44 211.176 20.672C211.488 19.88 211.932 19.184 212.508 18.584C213.108 17.96 213.876 17.456 214.812 17.072C215.748 16.688 216.9 16.496 218.268 16.496C218.916 16.496 219.576 16.568 220.248 16.712C220.944 16.832 221.58 17.12 222.156 17.576C222.732 18.032 223.212 18.692 223.596 19.556C224.004 20.396 224.244 21.536 224.316 22.976C224.34 23.432 224.352 23.84 224.352 24.2C224.376 24.536 224.388 24.872 224.388 25.208C224.412 25.544 224.424 25.892 224.424 26.252C224.424 26.612 224.424 27.032 224.424 27.512C224.424 28.496 224.412 29.336 224.388 30.032C224.388 30.704 224.388 31.316 224.388 31.868C224.388 32.324 224.364 32.744 224.316 33.128C224.292 33.512 224.22 33.836 224.1 34.1C223.98 34.364 223.8 34.58 223.56 34.748C223.344 34.892 223.02 34.964 222.588 34.964C222.18 34.964 221.868 34.892 221.652 34.748C221.436 34.58 221.256 34.304 221.112 33.92ZM231.798 18.692C231.846 19.316 231.858 20.072 231.834 20.96C231.834 21.848 231.846 22.784 231.87 23.768C231.918 24.728 232.002 25.7 232.122 26.684C232.242 27.644 232.446 28.508 232.734 29.276C233.046 30.044 233.466 30.668 233.994 31.148C234.546 31.628 235.254 31.868 236.118 31.868C236.982 31.868 237.678 31.628 238.206 31.148C238.758 30.668 239.178 30.044 239.466 29.276C239.778 28.508 239.994 27.644 240.114 26.684C240.234 25.7 240.306 24.728 240.33 23.768C240.378 22.784 240.39 21.848 240.366 20.96C240.366 20.072 240.39 19.316 240.438 18.692C240.534 17.204 241.146 16.46 242.274 16.46C242.706 16.46 243.042 16.58 243.282 16.82C243.522 17.06 243.69 17.396 243.786 17.828C243.906 18.26 243.978 18.776 244.002 19.376C244.026 19.976 244.038 20.648 244.038 21.392C244.038 22.928 243.954 24.524 243.786 26.18C243.642 27.812 243.294 29.312 242.742 30.68C242.214 32.048 241.422 33.176 240.366 34.064C239.31 34.952 237.894 35.396 236.118 35.396C234.342 35.396 232.926 34.952 231.87 34.064C230.814 33.176 230.01 32.048 229.458 30.68C228.93 29.312 228.582 27.812 228.414 26.18C228.27 24.524 228.198 22.928 228.198 21.392C228.198 20.648 228.21 19.976 228.234 19.376C228.258 18.776 228.318 18.26 228.414 17.828C228.534 17.396 228.714 17.06 228.954 16.82C229.194 16.58 229.53 16.46 229.962 16.46C231.09 16.46 231.702 17.204 231.798 18.692ZM256.636 19.664C255.748 19.664 254.944 19.808 254.224 20.096C253.528 20.384 252.736 20.816 251.848 21.392C251.848 21.896 251.848 22.64 251.848 23.624C251.848 24.584 251.836 25.64 251.812 26.792C251.788 27.92 251.764 29.036 251.74 30.14C251.716 31.244 251.668 32.168 251.596 32.912C251.548 33.392 251.488 33.776 251.416 34.064C251.368 34.328 251.284 34.532 251.164 34.676C251.068 34.82 250.924 34.916 250.732 34.964C250.564 34.988 250.336 35 250.048 35C249.76 35 249.52 34.988 249.328 34.964C249.16 34.916 249.016 34.832 248.896 34.712C248.776 34.568 248.68 34.364 248.608 34.1C248.536 33.836 248.476 33.476 248.428 33.02C248.38 32.588 248.332 32.012 248.284 31.292C248.26 30.572 248.236 29.792 248.212 28.952C248.188 28.088 248.164 27.224 248.14 26.36C248.14 25.472 248.14 24.656 248.14 23.912C248.14 22.688 248.152 21.692 248.176 20.924C248.224 20.156 248.296 19.472 248.392 18.872C248.536 17.864 248.728 17.228 248.968 16.964C249.208 16.7 249.532 16.568 249.94 16.568C250.54 16.568 250.984 16.736 251.272 17.072C251.584 17.408 251.776 17.96 251.848 18.728C252.736 17.96 253.684 17.348 254.692 16.892C255.724 16.436 256.78 16.208 257.86 16.208C258.892 16.208 259.828 16.448 260.668 16.928C261.532 17.408 262.24 18.188 262.792 19.268C263.128 19.916 263.38 20.636 263.548 21.428C263.716 22.196 263.836 23.012 263.908 23.876C263.932 24.26 263.956 24.644 263.98 25.028C264.004 25.388 264.016 25.784 264.016 26.216C264.04 26.624 264.052 27.092 264.052 27.62C264.052 28.148 264.052 28.772 264.052 29.492C264.052 30.26 264.04 30.98 264.016 31.652C263.992 32.324 263.92 32.912 263.8 33.416C263.704 33.896 263.524 34.28 263.26 34.568C262.996 34.832 262.636 34.964 262.18 34.964C261.076 34.964 260.5 34.436 260.452 33.38C260.452 33.308 260.452 33.008 260.452 32.48C260.452 31.928 260.44 31.292 260.416 30.572C260.416 29.852 260.404 29.12 260.38 28.376C260.38 27.632 260.368 27.02 260.344 26.54C260.32 26.156 260.284 25.748 260.236 25.316C260.212 24.86 260.164 24.404 260.092 23.948C260.044 23.492 259.972 23.06 259.876 22.652C259.78 22.22 259.66 21.836 259.516 21.5C259.18 20.708 258.76 20.204 258.256 19.988C257.752 19.772 257.212 19.664 256.636 19.664ZM268.468 32.768C268.42 31.88 268.372 30.872 268.324 29.744C268.3 28.592 268.288 27.332 268.288 25.964C268.288 24.26 268.3 22.808 268.324 21.608C268.348 20.384 268.408 19.388 268.504 18.62C268.624 17.828 268.804 17.252 269.044 16.892C269.284 16.508 269.62 16.316 270.052 16.316C270.46 16.316 270.82 16.46 271.132 16.748C271.444 17.036 271.624 17.66 271.672 18.62C271.816 21.14 271.888 23.576 271.888 25.928C271.888 27.128 271.864 28.256 271.816 29.312C271.768 30.344 271.72 31.484 271.672 32.732C271.648 33.308 271.588 33.752 271.492 34.064C271.42 34.376 271.312 34.616 271.168 34.784C271.024 34.952 270.856 35.048 270.664 35.072C270.496 35.12 270.292 35.144 270.052 35.144C269.62 35.144 269.26 35 268.972 34.712C268.684 34.4 268.516 33.752 268.468 32.768ZM270.088 9.8C270.64 9.8 271.144 10.016 271.6 10.448C272.08 10.88 272.32 11.396 272.32 11.996C272.32 12.572 272.08 13.076 271.6 13.508C271.12 13.916 270.58 14.12 269.98 14.12C269.476 14.12 268.996 13.916 268.54 13.508C268.108 13.076 267.892 12.548 267.892 11.924C267.892 11.348 268.108 10.856 268.54 10.448C268.996 10.016 269.512 9.8 270.088 9.8ZM279.433 32.66C279.361 31.148 279.313 29.36 279.289 27.296C279.289 25.208 279.289 22.844 279.289 20.204C279.049 20.228 278.761 20.24 278.425 20.24C278.113 20.24 277.861 20.24 277.669 20.24C277.237 20.24 276.841 20.228 276.481 20.204C276.145 20.18 275.845 20.108 275.581 19.988C275.317 19.868 275.113 19.7 274.969 19.484C274.825 19.244 274.753 18.92 274.753 18.512C274.753 17.36 275.617 16.784 277.345 16.784C277.609 16.784 277.933 16.784 278.317 16.784C278.701 16.784 279.025 16.808 279.289 16.856C279.289 15.584 279.313 14.564 279.361 13.796C279.409 13.028 279.493 12.44 279.613 12.032C279.757 11.6 279.937 11.324 280.153 11.204C280.393 11.06 280.693 10.988 281.053 10.988C281.437 10.988 281.749 11.12 281.989 11.384C282.229 11.648 282.409 11.984 282.529 12.392C282.673 12.8 282.757 13.256 282.781 13.76C282.829 14.264 282.853 14.756 282.853 15.236C282.853 15.572 282.841 15.884 282.817 16.172C282.817 16.436 282.817 16.676 282.817 16.892C283.153 16.796 283.501 16.748 283.861 16.748C284.221 16.724 284.569 16.712 284.905 16.712C285.793 16.712 286.477 16.856 286.957 17.144C287.437 17.408 287.677 17.852 287.677 18.476C287.677 18.86 287.593 19.172 287.425 19.412C287.257 19.628 287.029 19.796 286.741 19.916C286.477 20.036 286.153 20.12 285.769 20.168C285.409 20.192 285.013 20.204 284.581 20.204C284.341 20.204 284.065 20.204 283.753 20.204C283.441 20.204 283.153 20.18 282.889 20.132C282.889 21.404 282.889 22.568 282.889 23.624C282.889 24.68 282.877 25.7 282.853 26.684C282.829 27.644 282.805 28.604 282.781 29.564C282.757 30.524 282.721 31.544 282.673 32.624C282.649 33.2 282.589 33.644 282.493 33.956C282.421 34.268 282.313 34.508 282.169 34.676C282.025 34.844 281.857 34.952 281.665 35C281.497 35.024 281.293 35.036 281.053 35.036C280.621 35.036 280.249 34.892 279.937 34.604C279.649 34.292 279.481 33.644 279.433 32.66ZM294.857 41.588C294.545 42.14 294.245 42.548 293.957 42.812C293.693 43.076 293.381 43.208 293.021 43.208C292.685 43.208 292.349 43.1 292.013 42.884C291.677 42.668 291.509 42.368 291.509 41.984C291.509 41.624 291.629 41.108 291.869 40.436C292.133 39.764 292.445 39.032 292.805 38.24C293.189 37.448 293.585 36.632 293.993 35.792C294.401 34.952 294.773 34.184 295.109 33.488L295.361 32.948C294.641 31.532 293.897 30.02 293.129 28.412C292.385 26.804 291.701 25.28 291.077 23.84C290.453 22.4 289.937 21.152 289.529 20.096C289.145 19.016 288.953 18.308 288.953 17.972C288.953 17.66 289.073 17.396 289.313 17.18C289.577 16.94 289.901 16.82 290.285 16.82C290.621 16.82 290.945 16.892 291.257 17.036C291.569 17.156 291.857 17.444 292.121 17.9C292.505 18.62 292.901 19.448 293.309 20.384C293.741 21.296 294.161 22.256 294.569 23.264C295.001 24.272 295.433 25.292 295.865 26.324C296.321 27.356 296.777 28.352 297.233 29.312C297.761 28.328 298.325 27.296 298.925 26.216C299.525 25.136 300.101 24.092 300.653 23.084C301.229 22.076 301.757 21.152 302.237 20.312C302.717 19.448 303.125 18.728 303.461 18.152C303.797 17.6 304.133 17.204 304.469 16.964C304.805 16.724 305.153 16.604 305.513 16.604C305.753 16.604 305.993 16.712 306.233 16.928C306.473 17.12 306.593 17.384 306.593 17.72C306.593 18.224 306.365 19.04 305.909 20.168C305.477 21.272 304.913 22.556 304.217 24.02C303.521 25.484 302.729 27.056 301.841 28.736C300.977 30.392 300.113 32.024 299.249 33.632C298.385 35.216 297.557 36.704 296.765 38.096C295.997 39.488 295.361 40.652 294.857 41.588ZM330.985 32.768C330.937 31.472 330.889 30.116 330.841 28.7C330.817 27.26 330.805 25.604 330.805 23.732C330.037 23.756 329.221 23.78 328.357 23.804C327.493 23.804 326.605 23.804 325.693 23.804C324.613 23.804 323.629 23.804 322.741 23.804C321.853 23.804 321.061 23.792 320.365 23.768C320.341 25.28 320.317 26.744 320.293 28.16C320.269 29.552 320.221 31.076 320.149 32.732C320.125 33.308 320.065 33.752 319.969 34.064C319.897 34.376 319.789 34.616 319.645 34.784C319.501 34.952 319.333 35.048 319.141 35.072C318.973 35.12 318.769 35.144 318.529 35.144C318.097 35.144 317.737 35 317.449 34.712C317.161 34.4 316.993 33.752 316.945 32.768C316.897 31.904 316.861 31.004 316.837 30.068C316.837 29.132 316.825 28.124 316.801 27.044C316.777 25.964 316.765 24.8 316.765 23.552C316.765 22.28 316.765 20.864 316.765 19.304C316.765 17.6 316.777 16.148 316.801 14.948C316.825 13.724 316.885 12.728 316.981 11.96C317.101 11.192 317.281 10.628 317.521 10.268C317.761 9.908 318.097 9.728 318.529 9.728C318.937 9.728 319.297 9.86 319.609 10.124C319.921 10.388 320.101 11 320.149 11.96C320.197 12.776 320.233 13.52 320.257 14.192C320.281 14.84 320.305 15.488 320.329 16.136C320.353 16.76 320.365 17.408 320.365 18.08C320.365 18.752 320.365 19.496 320.365 20.312C322.165 20.24 323.929 20.204 325.657 20.204C326.497 20.204 327.337 20.216 328.177 20.24C329.041 20.264 329.917 20.3 330.805 20.348V19.304C330.805 17.6 330.817 16.148 330.841 14.948C330.865 13.724 330.925 12.728 331.021 11.96C331.141 11.192 331.321 10.628 331.561 10.268C331.801 9.908 332.137 9.728 332.569 9.728C332.977 9.728 333.337 9.86 333.649 10.124C333.961 10.388 334.141 11 334.189 11.96C334.237 12.824 334.273 13.592 334.297 14.264C334.321 14.936 334.345 15.608 334.369 16.28C334.393 16.928 334.405 17.612 334.405 18.332C334.405 19.028 334.405 19.82 334.405 20.708C334.405 21.788 334.405 22.82 334.405 23.804C334.405 24.788 334.393 25.76 334.369 26.72C334.345 27.68 334.321 28.652 334.297 29.636C334.273 30.62 334.237 31.652 334.189 32.732C334.165 33.308 334.105 33.752 334.009 34.064C333.937 34.376 333.829 34.616 333.685 34.784C333.541 34.952 333.373 35.048 333.181 35.072C333.013 35.12 332.809 35.144 332.569 35.144C332.137 35.144 331.777 35 331.489 34.712C331.201 34.4 331.033 33.752 330.985 32.768ZM341.942 18.692C341.99 19.316 342.002 20.072 341.978 20.96C341.978 21.848 341.99 22.784 342.014 23.768C342.062 24.728 342.146 25.7 342.266 26.684C342.386 27.644 342.59 28.508 342.878 29.276C343.19 30.044 343.61 30.668 344.138 31.148C344.69 31.628 345.398 31.868 346.262 31.868C347.126 31.868 347.822 31.628 348.35 31.148C348.902 30.668 349.322 30.044 349.61 29.276C349.922 28.508 350.138 27.644 350.258 26.684C350.378 25.7 350.45 24.728 350.474 23.768C350.522 22.784 350.534 21.848 350.51 20.96C350.51 20.072 350.534 19.316 350.582 18.692C350.678 17.204 351.29 16.46 352.418 16.46C352.85 16.46 353.186 16.58 353.426 16.82C353.666 17.06 353.834 17.396 353.93 17.828C354.05 18.26 354.122 18.776 354.146 19.376C354.17 19.976 354.182 20.648 354.182 21.392C354.182 22.928 354.098 24.524 353.93 26.18C353.786 27.812 353.438 29.312 352.886 30.68C352.358 32.048 351.566 33.176 350.51 34.064C349.454 34.952 348.038 35.396 346.262 35.396C344.486 35.396 343.07 34.952 342.014 34.064C340.958 33.176 340.154 32.048 339.602 30.68C339.074 29.312 338.726 27.812 338.558 26.18C338.414 24.524 338.342 22.928 338.342 21.392C338.342 20.648 338.354 19.976 338.378 19.376C338.402 18.776 338.462 18.26 338.558 17.828C338.678 17.396 338.858 17.06 339.098 16.82C339.338 16.58 339.674 16.46 340.106 16.46C341.234 16.46 341.846 17.204 341.942 18.692ZM362.281 11.456C362.281 12.896 362.233 14.408 362.137 15.992C362.065 17.552 361.969 19.076 361.849 20.564C362.161 19.916 362.569 19.364 363.073 18.908C363.577 18.428 364.129 18.044 364.729 17.756C365.353 17.468 366.001 17.252 366.673 17.108C367.345 16.964 367.993 16.892 368.617 16.892C369.697 16.892 370.705 17.096 371.641 17.504C372.601 17.888 373.429 18.464 374.125 19.232C374.845 19.976 375.397 20.912 375.781 22.04C376.189 23.144 376.393 24.416 376.393 25.856C376.393 27.248 376.189 28.52 375.781 29.672C375.373 30.824 374.761 31.82 373.945 32.66C373.153 33.476 372.157 34.112 370.957 34.568C369.781 35.024 368.425 35.252 366.889 35.252C364.801 35.252 363.157 34.832 361.957 33.992C360.781 33.152 359.905 32.036 359.329 30.644C358.753 29.228 358.393 27.608 358.249 25.784C358.129 23.96 358.069 22.052 358.069 20.06C358.069 18.044 358.105 16.22 358.177 14.588C358.249 12.956 358.357 11.636 358.501 10.628C358.645 9.716 358.885 9.068 359.221 8.684C359.557 8.3 360.001 8.108 360.553 8.108C360.961 8.108 361.285 8.204 361.525 8.396C361.765 8.564 361.933 8.804 362.029 9.116C362.149 9.428 362.221 9.788 362.245 10.196C362.269 10.58 362.281 11 362.281 11.456ZM367.609 20.456C366.913 20.456 366.241 20.576 365.593 20.816C364.969 21.032 364.405 21.38 363.901 21.86C363.421 22.34 363.037 22.952 362.749 23.696C362.461 24.416 362.317 25.292 362.317 26.324C362.317 28.148 362.761 29.54 363.649 30.5C364.561 31.436 365.773 31.904 367.285 31.904C367.909 31.904 368.545 31.82 369.193 31.652C369.841 31.46 370.429 31.148 370.957 30.716C371.485 30.26 371.917 29.66 372.253 28.916C372.589 28.172 372.757 27.248 372.757 26.144C372.757 25.16 372.613 24.308 372.325 23.588C372.061 22.868 371.689 22.28 371.209 21.824C370.729 21.344 370.177 20.996 369.553 20.78C368.929 20.564 368.281 20.456 367.609 20.456Z" fill="black"/>
</svg>
