<svg width="160" height="160" viewBox="0 0 160 160" fill="none" xmlns="http://www.w3.org/2000/svg">
<path d="M107.619 71.5042L107.619 71.5042L86.5984 66.2137L86.5984 66.2137C85.7213 65.993 84.9334 65.5086 84.341 64.8259L84.3407 64.8255L78.8759 58.5307L78.9706 52.5062L85.664 52.8719L89.6902 57.5095L90.1024 57.9844L90.7123 58.1379L109.776 62.936C112.142 63.5316 113.577 65.9325 112.982 68.2983L112.982 68.2984C112.386 70.6648 109.984 72.0997 107.619 71.5042Z" fill="#FFB69E" stroke="black" stroke-width="4"/>
<path d="M66.5575 44.3409L66.5575 44.3409L77.0729 56.4539L83.7876 50.7108L73.2296 38.5488C71.6302 36.7065 68.8398 36.5092 66.9974 38.1086L66.5575 44.3409ZM66.5575 44.3409C64.958 42.4985 65.155 39.7084 66.9973 38.1087L66.5575 44.3409Z" fill="#4699F2" stroke="black" stroke-width="4"/>
<path d="M31.9062 149.898L31.9063 149.898L46.9105 117.539L47.1201 117.087L47.0931 116.589L45.685 90.6227L51.2184 84.2613L57.167 89.645L58.5768 117.928L58.5769 117.928C58.6229 118.852 58.4438 119.772 58.0551 120.61L58.055 120.61L42.2513 154.695C40.927 157.551 37.5375 158.794 34.6805 157.469C31.8237 156.144 30.5817 152.755 31.9062 149.898Z" fill="#5F6E9B" stroke="black" stroke-width="4"/>
<path d="M76.4249 152.794L76.4249 152.794C76.6974 155.919 79.4502 158.253 82.6003 157.977C85.7373 157.704 88.0581 154.939 87.7843 151.802L89.7767 151.628L87.7843 151.802L84.4705 113.839C84.4705 113.839 84.4705 113.839 84.4705 113.839C84.4313 113.39 84.3386 112.947 84.1945 112.518C84.1945 112.518 84.1945 112.518 84.1945 112.518L74.0371 82.3128L74.037 82.3126C73.0339 79.3283 69.8019 77.7224 66.816 78.7261L76.4249 152.794ZM76.4249 152.794L73.1905 115.745L73.1698 115.508M76.4249 152.794L73.1698 115.508M73.1698 115.508L73.0938 115.282M73.1698 115.508L73.0938 115.282M73.0938 115.282L63.2294 85.9472M73.0938 115.282L63.2294 85.9472M63.2294 85.9472C63.2294 85.9472 63.2293 85.9471 63.2293 85.9471M63.2294 85.9472L63.2293 85.9471M63.2293 85.9471C62.2258 82.9624 63.8314 79.7297 66.8159 78.7261L63.2293 85.9471Z" fill="#414B82" stroke="black" stroke-width="4"/>
<path d="M80.7692 43.545L77.6504 90.1911L45.7736 88.0598L48.8924 41.4134C48.8924 41.4134 48.8924 41.4134 48.8924 41.4134C49.1689 37.2796 52.7442 34.1524 56.8778 34.4288L56.8778 34.4288L73.7846 35.5593C73.7846 35.5593 73.7846 35.5593 73.7847 35.5593C77.9184 35.8357 81.0457 39.4109 80.7692 43.545Z" fill="#64AFFF" stroke="black" stroke-width="4"/>
<path d="M56.5945 13.2613L54.599 13.1278L56.5945 13.2613C57.0393 6.61227 62.7896 1.58295 69.4384 2.02741C76.0871 2.47186 81.1169 8.22224 80.6722 14.8712C80.2275 21.5202 74.4771 26.5495 67.8283 26.1051C61.1793 25.6603 56.1498 19.9099 56.5945 13.2613Z" fill="#FFB69E" stroke="black" stroke-width="4"/>
<path d="M47.1147 22.7473L47.1478 22.7506L47.1811 22.7529C51.3149 23.0293 54.4421 26.6046 54.1657 30.7383L54.1657 30.7383L51.5895 69.269C51.2912 73.7327 47.4248 77.1035 42.9646 76.7936L32.2924 75.8008L32.2715 75.7989L32.2506 75.7974C28.1415 75.502 25.0437 71.9421 25.3185 67.8317L27.9411 28.607C28.2169 24.4834 31.7747 21.3618 35.8952 21.6204L47.1147 22.7473Z" fill="#E64937" stroke="black" stroke-width="4"/>
<path d="M45.2536 67.2989L45.2536 67.2991C44.99 71.4454 41.3292 74.5393 37.1967 74.1083C37.1967 74.1083 37.1966 74.1083 37.1966 74.1083L26.4442 72.9863L26.3407 72.9755H26.2367C22.0501 72.9755 18.7373 69.4339 19.0165 65.2567L19.0165 65.2566L19.1616 63.0851C19.1616 63.085 19.1616 63.085 19.1616 63.0849C19.4374 58.9616 22.9953 55.8399 27.1157 56.0984L38.3351 57.2253L38.3683 57.2287L38.4016 57.2309C42.5354 57.5073 45.6626 61.0826 45.3862 65.2163L45.3858 65.2227L45.2536 67.2989Z" fill="#87AFB9" stroke="black" stroke-width="4"/>
<mask id="path-9-inside-1" fill="white">
<path d="M51.7767 71.409L51.1794 66.2576L66.3124 49.6067C67.7835 48.0206 68.6851 45.9783 68.8637 43.8417C69.0917 41.1224 68.1999 38.5182 66.3523 36.5098C64.5049 34.5014 61.9849 33.3951 59.2559 33.3951H55.293V29.627H59.2559C62.9961 29.627 66.5934 31.2058 69.1259 33.9591C71.6578 36.712 72.9312 40.429 72.619 44.1564C72.37 47.1282 71.1161 49.9688 69.0882 52.1555L51.7767 71.409Z"/>
</mask>
<path d="M51.7767 71.409L51.1794 66.2576L66.3124 49.6067C67.7835 48.0206 68.6851 45.9783 68.8637 43.8417C69.0917 41.1224 68.1999 38.5182 66.3523 36.5098C64.5049 34.5014 61.9849 33.3951 59.2559 33.3951H55.293V29.627H59.2559C62.9961 29.627 66.5934 31.2058 69.1259 33.9591C71.6578 36.712 72.9312 40.429 72.619 44.1564C72.37 47.1282 71.1161 49.9688 69.0882 52.1555L51.7767 71.409Z" fill="#E64937"/>
<path d="M51.7767 71.409L47.8033 71.8697L48.8242 80.6752L54.7511 74.0834L51.7767 71.409ZM51.1794 66.2576L48.2193 63.5673L46.9967 64.9126L47.206 66.7183L51.1794 66.2576ZM66.3124 49.6067L63.3797 46.8865L63.3659 46.9014L63.3522 46.9164L66.3124 49.6067ZM68.8637 43.8417L64.8777 43.5076L64.8776 43.5084L68.8637 43.8417ZM66.3523 36.5098L63.4082 39.2177L63.4085 39.218L66.3523 36.5098ZM55.293 33.3951H51.293V37.3951H55.293V33.3951ZM55.293 29.627V25.627H51.293V29.627H55.293ZM69.1259 33.9591L72.0701 31.2513L72.0699 31.2511L69.1259 33.9591ZM72.619 44.1564L76.6051 44.4904L76.6051 44.4902L72.619 44.1564ZM69.0882 52.1555L66.1553 49.4357L66.1344 49.4582L66.1138 49.4811L69.0882 52.1555ZM55.75 70.9483L55.1528 65.7969L47.206 66.7183L47.8033 71.8697L55.75 70.9483ZM54.1395 68.9479L69.2725 52.297L63.3522 46.9164L48.2193 63.5673L54.1395 68.9479ZM69.2451 52.3269C71.3213 50.0885 72.5963 47.2069 72.8498 44.1751L64.8776 43.5084C64.7738 44.7496 64.2458 45.9528 63.3797 46.8865L69.2451 52.3269ZM72.8497 44.1759C73.1712 40.3416 71.9016 36.634 69.296 33.8017L63.4085 39.218C64.4982 40.4025 65.0122 41.9032 64.8777 43.5076L72.8497 44.1759ZM69.2963 33.8019C66.6916 30.9702 63.104 29.3951 59.2559 29.3951V37.3951C60.8659 37.3951 62.3182 38.0326 63.4082 39.2177L69.2963 33.8019ZM59.2559 29.3951H55.293V37.3951H59.2559V29.3951ZM59.293 33.3951V29.627H51.293V33.3951H59.293ZM55.293 33.627H59.2559V25.627H55.293V33.627ZM59.2559 33.627C61.8771 33.627 64.4068 34.7371 66.182 36.667L72.0699 31.2511C68.7801 27.6745 64.1151 25.627 59.2559 25.627V33.627ZM66.1818 36.6668C67.9563 38.5963 68.8517 41.2102 68.633 43.8226L76.6051 44.4902C77.0106 39.6478 75.3594 34.8278 72.0701 31.2513L66.1818 36.6668ZM68.633 43.8224C68.4586 45.9035 67.5756 47.9041 66.1553 49.4357L72.0212 54.8754C74.6567 52.0334 76.2814 48.3529 76.6051 44.4904L68.633 43.8224ZM66.1138 49.4811L48.8022 68.7345L54.7511 74.0834L72.0627 54.83L66.1138 49.4811Z" fill="black" mask="url(#path-9-inside-1)"/>
<path d="M26.4703 81.7453L26.4702 81.7453C24.2191 80.8041 23.1572 78.2162 24.0983 75.9653L34.163 51.893C34.163 51.893 34.1631 51.893 34.1631 51.893C34.5556 50.9543 35.26 50.18 36.1574 49.7005C36.1574 49.7005 36.1575 49.7005 36.1575 49.7004L44.231 45.387L49.4004 47.6516L47.8428 53.4749L42.3361 56.4168L41.708 56.7524L41.4333 57.4094L32.2503 79.3734C31.3038 81.6371 28.7089 82.6814 26.4703 81.7453Z" fill="#FFB69E" stroke="black" stroke-width="4"/>
<path d="M63.8693 44.9119L63.8692 44.912L50.4751 52.0679L46.7538 44.0389L59.7058 37.119C59.7058 37.119 59.7059 37.1189 59.7059 37.1189C61.8583 35.9692 64.5343 36.7817 65.6841 38.9338C66.8338 41.0859 66.0212 43.7625 63.8693 44.9119Z" fill="#4699F2" stroke="black" stroke-width="4"/>
<mask id="path-13-inside-2" fill="white">
<path d="M38.6631 41.6235C38.6129 41.6235 38.5626 41.6216 38.5118 41.6176C37.4746 41.535 36.7002 40.6275 36.7828 39.59L38.3478 19.896C38.4304 18.8585 39.3395 18.086 40.3754 18.167C41.4126 18.2496 42.187 19.1571 42.1044 20.1946L40.5393 39.8886C40.4608 40.8749 39.6359 41.6235 38.6631 41.6235Z"/>
</mask>
<path d="M38.6631 41.6235C38.6129 41.6235 38.5626 41.6216 38.5118 41.6176C37.4746 41.535 36.7002 40.6275 36.7828 39.59L38.3478 19.896C38.4304 18.8585 39.3395 18.086 40.3754 18.167C41.4126 18.2496 42.187 19.1571 42.1044 20.1946L40.5393 39.8886C40.4608 40.8749 39.6359 41.6235 38.6631 41.6235Z" fill="#87AFB9"/>
<path d="M38.5118 41.6176L38.8317 37.6304L38.8293 37.6302L38.5118 41.6176ZM36.7828 39.59L40.7702 39.9074L40.7702 39.9069L36.7828 39.59ZM38.3478 19.896L34.3605 19.5786L34.3604 19.5791L38.3478 19.896ZM40.3754 18.167L40.6929 14.1796L40.6873 14.1792L40.3754 18.167ZM42.1044 20.1946L38.117 19.8772L38.117 19.8777L42.1044 20.1946ZM40.5393 39.8886L44.5267 40.206L44.5268 40.2055L40.5393 39.8886ZM38.6631 37.6235C38.7136 37.6235 38.7702 37.6255 38.8317 37.6304L38.1918 45.6047C38.355 45.6178 38.5122 45.6235 38.6631 45.6235V37.6235ZM38.8293 37.6302C39.9926 37.7228 40.863 38.7411 40.7702 39.9074L32.7954 39.2726C32.5374 42.5139 34.9566 45.3471 38.1943 45.6049L38.8293 37.6302ZM40.7702 39.9069L42.3353 20.2129L34.3604 19.5791L32.7954 39.2731L40.7702 39.9069ZM42.3352 20.2134C42.242 21.3843 41.2194 22.2452 40.0636 22.1548L40.6873 14.1792C37.4596 13.9268 34.6188 16.3326 34.3605 19.5786L42.3352 20.2134ZM40.0579 22.1544C38.8946 22.0618 38.0242 21.0435 38.117 19.8772L46.0918 20.512C46.3498 17.2707 43.9306 14.4374 40.6929 14.1796L40.0579 22.1544ZM38.117 19.8777L36.5519 39.5717L44.5268 40.2055L46.0918 20.5115L38.117 19.8777ZM36.552 39.5712C36.6402 38.4619 37.5661 37.6235 38.6631 37.6235V45.6235C41.7057 45.6235 44.2814 43.2879 44.5267 40.206L36.552 39.5712Z" fill="black" mask="url(#path-13-inside-2)"/>
</svg>
